<svg class="animated" id="freepik_stories-voice-assistant" xmlns="http://www.w3.org/2000/svg" viewBox="0 0 500 500" version="1.1" xmlns:xlink="http://www.w3.org/1999/xlink" xmlns:svgjs="http://svgjs.com/svgjs"><style>svg#freepik_stories-voice-assistant:not(.animated) .animable {opacity: 0;}svg#freepik_stories-voice-assistant.animated #freepik--background-complete--inject-2 {animation: 1s 1 forwards cubic-bezier(.36,-0.01,.5,1.38) slideUp;animation-delay: 0s;}svg#freepik_stories-voice-assistant.animated #freepik--Floor--inject-2 {animation: 1s 1 forwards cubic-bezier(.36,-0.01,.5,1.38) zoomOut;animation-delay: 0s;}svg#freepik_stories-voice-assistant.animated #freepik--Plant--inject-2 {animation: 1s 1 forwards cubic-bezier(.36,-0.01,.5,1.38) lightSpeedRight;animation-delay: 0s;}svg#freepik_stories-voice-assistant.animated #freepik--Device--inject-2 {animation: 1s 1 forwards cubic-bezier(.36,-0.01,.5,1.38) slideUp;animation-delay: 0s;}svg#freepik_stories-voice-assistant.animated #freepik--Lines--inject-2 {animation: 1s 1 forwards cubic-bezier(.36,-0.01,.5,1.38) slideDown;animation-delay: 0s;}svg#freepik_stories-voice-assistant.animated #freepik--Character--inject-2 {animation: 1s 1 forwards cubic-bezier(.36,-0.01,.5,1.38) zoomOut;animation-delay: 0s;}            @keyframes slideUp {                0% {                    opacity: 0;                    transform: translateY(30px);                }                100% {                    opacity: 1;                    transform: inherit;                }            }                    @keyframes zoomOut {                0% {                    opacity: 0;                    transform: scale(1.5);                }                100% {                    opacity: 1;                    transform: scale(1);                }            }                    @keyframes lightSpeedRight {              from {                transform: translate3d(50%, 0, 0) skewX(-20deg);                opacity: 0;              }              60% {                transform: skewX(10deg);                opacity: 1;              }              80% {                transform: skewX(-2deg);              }              to {                opacity: 1;                transform: translate3d(0, 0, 0);              }            }                    @keyframes slideDown {                0% {                    opacity: 0;                    transform: translateY(-30px);                }                100% {                    opacity: 1;                    transform: translateY(0);                }            }        </style><g id="freepik--background-complete--inject-2" class="animable" style="transform-origin: 249.895px 254.025px;"><rect x="62.77" y="378.66" width="35.16" height="11.19" style="fill: rgb(235, 235, 235); transform-origin: 80.35px 384.255px;" id="el5dxr15c6dv6" class="animable"></rect><rect x="176.31" y="105.24" width="35.16" height="11.19" style="fill: rgb(235, 235, 235); transform-origin: 193.89px 110.835px;" id="elfljng7leq2q" class="animable"></rect><path d="M78.32,404l-17.46.29-8.83.12-8.87,0h-.45V404l0-11.19v-.5h.5l17.58.07,8.79.08,8.79.11h.24v.24Zm0,0-.24-11.19.24.24-8.79.1-8.79.09-17.58.07.5-.5,0,11.19-.46-.46,8.71,0,8.75.13Z" style="fill: rgb(235, 235, 235); transform-origin: 60.66px 398.36px;" id="elkaiz79hwo4" class="animable"></path><path d="M277.25,256.09l-17.46.29-8.83.12-8.87,0h-.46v-.45l0-11.19v-.5h.5l17.58.07,8.79.08,8.79.11h.24v.24Zm0,0L277,244.9l.24.23-8.79.11-8.79.09-17.58.07.5-.5-.05,11.19-.45-.46,8.71,0,8.75.12Z" style="fill: rgb(235, 235, 235); transform-origin: 259.58px 250.43px;" id="elhy6rnh6pcba" class="animable"></path><path d="M257.63,270.2l-17.45.29-8.84.12-8.86,0H222v-.45L222,259v-.5h.51l17.57.07,8.79.08,8.79.11h.25V259Zm0,0L257.4,259l.23.23-8.79.11-8.79.09-17.57.07.5-.5,0,11.19-.45-.46,8.71,0,8.74.12Z" style="fill: rgb(235, 235, 235); transform-origin: 239.955px 264.555px;" id="el0wvl8nnctzip" class="animable"></path><rect x="202.94" y="244.9" width="35.16" height="11.19" style="fill: rgb(235, 235, 235); transform-origin: 220.52px 250.495px;" id="elug5f00f16dj" class="animable"></rect><rect x="421.68" y="392.77" width="35.16" height="11.19" style="fill: rgb(235, 235, 235); transform-origin: 439.26px 398.365px;" id="elrsau6u4q27b" class="animable"></rect><rect x="402.07" y="47.22" width="35.16" height="11.19" style="fill: rgb(235, 235, 235); transform-origin: 419.65px 52.815px;" id="el0hdgtir6zw2" class="animable"></rect><path d="M456.84,72.52l-17.46.29-8.83.12-8.87,0h-.45v-.45l-.05-11.19v-.5h.5l17.58.07,8.79.08,8.79.11h.24v.24Zm0,0-.24-11.19.24.23-8.79.11-8.79.09-17.58.07.5-.5,0,11.19-.46-.46,8.71,0,8.75.12Z" style="fill: rgb(235, 235, 235); transform-origin: 439.13px 66.86px;" id="elkljtet6m1ok" class="animable"></path><path d="M97.93,58.41l-17.46.29-8.83.12-8.87,0h-.45v-.46l0-11.19v-.5h.5l17.58.07,8.79.08,8.79.11h.24v.24Zm0,0-.24-11.19.24.23-8.79.11-8.79.09-17.58.07.5-.5,0,11.19L62.77,58l8.71,0,8.75.12Z" style="fill: rgb(235, 235, 235); transform-origin: 80.27px 52.745px;" id="ellona3odf34" class="animable"></path><path d="M300.67,429.7l-17.46.29-8.83.12-8.87,0h-.45v-.46l0-11.19V418h.5l17.58.07,8.79.08,8.79.11h.24v.24Zm0,0-.24-11.19.24.24-8.79.1-8.79.09-17.58.07.5-.5,0,11.19-.46-.46,8.71,0,8.75.12Z" style="fill: rgb(235, 235, 235); transform-origin: 283.01px 424.055px;" id="elnfwd35t6j3" class="animable"></path><path d="M56.48,44.33V222H172V44.33Zm111.21,173.4H60.74V48.6h107Z" style="fill: rgb(235, 235, 235); transform-origin: 114.24px 133.165px;" id="el53h27i1tyz" class="animable"></path><rect x="60.74" y="48.6" width="106.95" height="169.14" style="fill: rgb(255, 255, 255); transform-origin: 114.215px 133.17px;" id="elvk3zd1os24p" class="animable"></rect><g id="el110fgc4gxean"><rect x="60.74" y="131.03" width="106.95" height="4.26" style="fill: rgb(235, 235, 235); transform-origin: 114.215px 133.16px; transform: rotate(180deg);" class="animable" id="elfx65hnq68n7"></rect></g><g id="elikoxbo309if"><rect x="48.63" y="221.99" width="131.16" height="12.23" style="fill: rgb(219, 219, 219); transform-origin: 114.21px 228.105px; transform: rotate(180deg);" class="animable" id="els1yo33ip5x"></rect></g><path d="M60.74,48.59h107V158H60.74Zm103,3.95H64.68V154.07h99.07Z" style="fill: rgb(219, 219, 219); transform-origin: 114.24px 103.295px;" id="el029x1131ul3z" class="animable"></path><rect x="131.43" y="48.59" width="2.13" height="105.48" style="fill: rgb(219, 219, 219); transform-origin: 132.495px 101.33px;" id="elw6osrk1x06" class="animable"></rect><rect x="94.87" y="48.59" width="2.13" height="105.48" style="fill: rgb(219, 219, 219); transform-origin: 95.935px 101.33px;" id="elguligkpld0b" class="animable"></rect><path d="M248.39,44.33V222H363.87V44.33Zm111.22,173.4h-107V48.6h107Z" style="fill: rgb(235, 235, 235); transform-origin: 306.13px 133.165px;" id="elrt71cdkgysc" class="animable"></path><rect x="252.66" y="48.6" width="106.95" height="169.14" style="fill: rgb(255, 255, 255); transform-origin: 306.135px 133.17px;" id="elj5y7kcwy1a" class="animable"></rect><g id="eljaogzixi4qf"><rect x="252.65" y="131.03" width="106.95" height="4.26" style="fill: rgb(235, 235, 235); transform-origin: 306.125px 133.16px; transform: rotate(180deg);" class="animable" id="elc7lzyttgank"></rect></g><g id="eleau2femxotk"><rect x="240.55" y="221.99" width="131.16" height="12.23" style="fill: rgb(219, 219, 219); transform-origin: 306.13px 228.105px; transform: rotate(180deg);" class="animable" id="elsrujsvl3gtb"></rect></g><path d="M252.65,48.59h107V158h-107Zm103,3.95H256.6V154.07h99.06Z" style="fill: rgb(219, 219, 219); transform-origin: 306.15px 103.295px;" id="eltiw3wnvtgje" class="animable"></path><rect x="323.34" y="48.59" width="2.13" height="105.48" style="fill: rgb(219, 219, 219); transform-origin: 324.405px 101.33px;" id="eldpqih4etq4k" class="animable"></rect><rect x="286.79" y="48.59" width="2.13" height="105.48" style="fill: rgb(219, 219, 219); transform-origin: 287.855px 101.33px;" id="el2965rx2di5a" class="animable"></rect><rect x="110.6" y="288.06" width="146.12" height="8.92" style="fill: rgb(235, 235, 235); transform-origin: 183.66px 292.52px;" id="eluoz841za2k" class="animable"></rect><rect x="123.63" y="296.98" width="120.06" height="24.61" style="fill: rgb(235, 235, 235); transform-origin: 183.66px 309.285px;" id="elb07t2br1e2o" class="animable"></rect><polygon points="243.69 301.84 123.63 304.23 123.63 296.98 243.69 296.98 243.69 301.84" style="fill: rgb(199, 199, 199); transform-origin: 183.66px 300.605px;" id="el9uhr4x9zwh" class="animable"></polygon><path d="M225.6,316.94H141.72v-15.3H225.6Zm-82.88-1H224.6v-13.3H142.72Z" style="fill: rgb(219, 219, 219); transform-origin: 183.66px 309.29px;" id="elzs76znupuon" class="animable"></path><rect x="169.99" y="307.22" width="27.33" height="4.13" style="fill: rgb(219, 219, 219); transform-origin: 183.655px 309.285px;" id="eltcaihs7b69i" class="animable"></rect><polygon points="122.66 463.15 118.68 463.15 130.25 321.6 140.39 321.6 122.66 463.15" style="fill: rgb(235, 235, 235); transform-origin: 129.535px 392.375px;" id="eleluji5xv4xr" class="animable"></polygon><polygon points="140.39 321.6 139.2 331.07 129.48 331.07 130.25 321.6 140.39 321.6" style="fill: rgb(199, 199, 199); transform-origin: 134.935px 326.335px;" id="eldqt6na0gj27" class="animable"></polygon><polygon points="244.66 463.15 248.63 463.15 237.07 321.6 226.93 321.6 244.66 463.15" style="fill: rgb(235, 235, 235); transform-origin: 237.78px 392.375px;" id="el41v8ftuv67o" class="animable"></polygon><polygon points="226.93 321.6 228.12 331.07 237.84 331.07 237.07 321.6 226.93 321.6" style="fill: rgb(199, 199, 199); transform-origin: 232.385px 326.335px;" id="elhkvtayk4zxm" class="animable"></polygon><path d="M398.94,457.09c1.58.52,3,1.68,3.9.13s3.32-1.09,4.22-1.42,2.17-2.93,2.11-3.75-.74-1.65-.74-2.42-.05-1.91-.15-3-.2-2.58-1.84-3.35a8,8,0,0,0-3.65-.58c-1-.11-1.8-1.77-3.87-2.41s-4.77,1.68-5,2.6-.43,3.74-1.2,4.79-1.84.7-2,2-.11,3.45.27,3.84,1.38-.19,1.84.59.88,2.85,1.82,3.33S397.73,456.69,398.94,457.09Z" style="fill: rgb(235, 235, 235); transform-origin: 399.903px 449.089px;" id="el9gskrwbxdv" class="animable"></path><polygon points="381.77 393.84 379.76 395.86 379.69 395.13 379.69 395.11 380.98 393.84 381.77 393.84" style="fill: rgb(199, 199, 199); transform-origin: 380.73px 394.85px;" id="elh34s7oga1do" class="animable"></polygon><polygon points="389.41 393.84 382.56 400.74 380.34 402.93 380.31 402.47 380.31 402.46 380.29 402.2 382.15 400.33 388.68 393.84 389.41 393.84" style="fill: rgb(199, 199, 199); transform-origin: 384.85px 398.385px;" id="eldy7i5upsnza" class="animable"></polygon><polygon points="397.06 393.84 386.39 404.58 380.95 409.98 380.94 409.88 380.89 409.28 385.98 404.16 396.37 393.84 397.06 393.84" style="fill: rgb(199, 199, 199); transform-origin: 388.975px 401.91px;" id="eldrmcyjwlnif" class="animable"></polygon><polygon points="404.72 393.84 390.23 408.41 381.55 417.04 381.49 416.37 389.81 408 404.06 393.84 404.72 393.84" style="fill: rgb(199, 199, 199); transform-origin: 393.105px 405.44px;" id="ele6ft7bbmjo" class="animable"></polygon><path d="M412.33,393.84q-1.54,1.59-3.11,3.17l-15.15,15.25L382.15,424.1l0-.63,11.56-11.64,15.23-15.13c1-1,1.93-1.91,2.9-2.86Z" style="fill: rgb(199, 199, 199); transform-origin: 397.24px 408.97px;" id="el5xejkps8uv2" class="animable"></path><path d="M420,393.84c-2.3,2.34-4.59,4.67-6.9,7l-15.14,15.25-15.16,15.05-.05-.58,14.79-14.88,15.24-15.15q3.39-3.36,6.8-6.69Z" style="fill: rgb(199, 199, 199); transform-origin: 401.375px 412.49px;" id="el5u1siljb6dx" class="animable"></path><path d="M427.52,393.84q-5.29,5.45-10.64,10.85l-15.14,15.23L386.5,435.07l-3.16,3.11,0-.5c.95-1,1.92-1.95,2.88-2.93l15.15-15.24,15.23-15.14q5.34-5.3,10.74-10.53Z" style="fill: rgb(199, 199, 199); transform-origin: 405.43px 416.01px;" id="elu777rb6b8xk" class="animable"></path><path d="M435,393.92V394q-7.1,7.3-14.26,14.55l-15.15,15.24L390.34,438.9l-6.4,6.29,0-.38q3-3.12,6.11-6.22l15.14-15.25,15.25-15.14Q427.64,401,435,393.92Z" style="fill: rgb(199, 199, 199); transform-origin: 409.47px 419.555px;" id="elinq4ryz1d" class="animable"></path><path d="M434.29,402.18v0l0,.26h0q-4.86,5-9.72,9.89l-15.13,15.23-15.25,15.16q-4.8,4.74-9.64,9.46v0l0-.24q4.67-4.77,9.35-9.52L409,427.18,424.24,412Q429.25,407.1,434.29,402.18Z" style="fill: rgb(199, 199, 199); transform-origin: 409.42px 427.18px;" id="el53zemjnpnbi" class="animable"></path><path d="M433.59,410.45l0,.52-5.14,5.22-15.15,15.25L398,446.58q-6.21,6.15-12.5,12.25h-.14q6.12-6.33,12.32-12.57L412.84,431l15.23-15.14Z" style="fill: rgb(199, 199, 199); transform-origin: 409.475px 434.64px;" id="elm335nf9eirh" class="animable"></path><path d="M432.89,418.75l-.06.67c-.2.19-.4.41-.6.61l-15.14,15.24-15.24,15.14q-4.28,4.23-8.57,8.42h-.34q4.29-4.36,8.59-8.74l15.14-15.23,15.24-15.15C432.24,419.39,432.56,419.06,432.89,418.75Z" style="fill: rgb(199, 199, 199); transform-origin: 412.915px 438.79px;" id="ely8402ijtr5h" class="animable"></path><path d="M432.17,427.1l-.06.74L420.92,439.1l-15.24,15.15c-1.55,1.54-3.1,3.06-4.65,4.58h-.5c1.61-1.64,3.21-3.27,4.83-4.89l15.15-15.25Z" style="fill: rgb(199, 199, 199); transform-origin: 416.35px 442.965px;" id="el3oncscfh8rj" class="animable"></path><path d="M431.47,435.45l-.07.8-6.65,6.69-15.23,15.14c-.26.25-.5.51-.76.75h-.61l1.05-1.06,15.14-15.25Z" style="fill: rgb(199, 199, 199); transform-origin: 419.81px 447.14px;" id="elf5gjeyw8x6e" class="animable"></path><polygon points="430.75 443.8 430.68 444.68 428.6 446.78 416.46 458.83 415.79 458.83 428.18 446.37 430.75 443.8" style="fill: rgb(199, 199, 199); transform-origin: 423.27px 451.315px;" id="elg05nl2nctq4" class="animable"></polygon><polygon points="430.05 452.18 430.05 452.21 429.98 453.06 424.17 458.83 423.44 458.83 430.05 452.18" style="fill: rgb(199, 199, 199); transform-origin: 426.745px 455.505px;" id="elnip0dvsh2si" class="animable"></polygon><polygon points="434.89 395.11 434.82 395.88 432.8 393.84 433.6 393.84 434.89 395.11" style="fill: rgb(199, 199, 199); transform-origin: 433.845px 394.86px;" id="elpdbvimcihrs" class="animable"></polygon><polygon points="434.29 402.2 434.22 402.93 432.02 400.74 425.15 393.84 425.9 393.84 432.43 400.33 434.29 402.2" style="fill: rgb(199, 199, 199); transform-origin: 429.72px 398.385px;" id="el56lx0j5tz8f" class="animable"></polygon><polygon points="433.68 409.28 433.63 409.88 433.62 410 428.18 404.58 417.5 393.84 418.2 393.84 428.6 404.16 433.68 409.28" style="fill: rgb(199, 199, 199); transform-origin: 425.59px 401.92px;" id="el54h2sjagyb5" class="animable"></polygon><polygon points="433.08 416.38 433.03 417.05 424.34 408.41 409.86 393.84 410.5 393.84 424.75 408 433.08 416.38" style="fill: rgb(199, 199, 199); transform-origin: 421.47px 405.445px;" id="els9j9x0cfahp" class="animable"></polygon><path d="M432.49,423.48l-.06.62-11.92-11.84L405.36,397l-3.12-3.17h.53c1,1,2,1.89,2.91,2.86l15.24,15.13Z" style="fill: rgb(199, 199, 199); transform-origin: 417.365px 408.965px;" id="elld8apagbvyh" class="animable"></path><path d="M431.88,430.56l-.05.58-15.16-15.05-15.14-15.25q-3.46-3.49-6.9-7h.42l6.8,6.69,15.24,15.15Z" style="fill: rgb(199, 199, 199); transform-origin: 413.255px 412.49px;" id="el72ff6v07gov" class="animable"></path><path d="M431.28,437.68l0,.51c-1.05-1.05-2.11-2.08-3.16-3.12l-15.23-15.15-15.15-15.23q-5.32-5.42-10.63-10.85h.22q5.39,5.24,10.73,10.53l15.24,15.14,15.15,15.24Z" style="fill: rgb(199, 199, 199); transform-origin: 409.195px 416.015px;" id="el9w8jp7r34k4" class="animable"></path><path d="M430.67,444.81l0,.38c-2.15-2.07-4.28-4.18-6.41-6.29L409,423.76l-15.14-15.24q-7.17-7.25-14.26-14.55v-.05q7.34,7.11,14.58,14.28l15.25,15.14,15.13,15.25Q427.63,441.7,430.67,444.81Z" style="fill: rgb(199, 199, 199); transform-origin: 405.135px 419.555px;" id="eluy22dpaezv" class="animable"></path><path d="M430.07,451.94l0,.27q-4.85-4.71-9.64-9.46l-15.25-15.16L390,412.36c-3.24-3.28-6.49-6.58-9.71-9.89h0l0-.28q5,4.9,10,9.85l15.23,15.15,15.15,15.24Q425.42,447.16,430.07,451.94Z" style="fill: rgb(199, 199, 199); transform-origin: 405.18px 427.2px;" id="elcy7kfe63xmq" class="animable"></path><path d="M429.21,458.83h-.14q-6.29-6.09-12.51-12.25l-15.23-15.14-15.15-15.25L381,411l-.05-.52c1.84,1.81,3.68,3.61,5.51,5.43L401.74,431l15.14,15.24C421,450.43,425.13,454.61,429.21,458.83Z" style="fill: rgb(199, 199, 199); transform-origin: 405.08px 434.655px;" id="elfbvs360jptq" class="animable"></path><path d="M421.64,458.83h-.34q-4.31-4.2-8.57-8.42l-15.24-15.14L382.35,420c-.2-.2-.4-.42-.6-.61l-.06-.66c.33.3.65.63,1,.95l15.25,15.15,15.14,15.23Q417.36,454.46,421.64,458.83Z" style="fill: rgb(199, 199, 199); transform-origin: 401.665px 438.78px;" id="elxzf3998ro6k" class="animable"></path><path d="M414,458.83h-.48c-1.56-1.52-3.12-3-4.66-4.58L393.66,439.1l-11.19-11.25-.06-.75,11.66,11.59,15.15,15.25C410.82,455.56,412.44,457.19,414,458.83Z" style="fill: rgb(199, 199, 199); transform-origin: 398.205px 442.965px;" id="el76qzcwyxkx7" class="animable"></path><path d="M406.43,458.83h-.61c-.26-.24-.51-.5-.76-.75l-15.25-15.14-6.63-6.67-.07-.82,7.12,7.07,15.14,15.25Z" style="fill: rgb(199, 199, 199); transform-origin: 394.77px 447.14px;" id="elnlibfhuh9ea" class="animable"></path><polygon points="398.79 458.83 398.12 458.83 385.98 446.78 383.89 444.68 383.89 444.67 383.81 443.81 386.39 446.37 398.79 458.83" style="fill: rgb(199, 199, 199); transform-origin: 391.3px 451.32px;" id="elybsyopc60rs" class="animable"></polygon><polygon points="391.14 458.83 390.41 458.83 384.6 453.06 384.53 452.18 391.14 458.83" style="fill: rgb(199, 199, 199); transform-origin: 387.835px 455.505px;" id="elx0hfsan1c5j" class="animable"></polygon><g id="elyij181uai8d"><rect x="381.97" y="393.83" width="1.17" height="65.14" style="fill: rgb(199, 199, 199); transform-origin: 382.555px 426.4px; transform: rotate(-5.21deg);" class="animable" id="elwpp9rq6wqh"></rect></g><g id="elctm67l1hf4"><rect x="399.6" y="425.81" width="65.14" height="1.17" style="fill: rgb(199, 199, 199); transform-origin: 432.17px 426.395px; transform: rotate(-84.73deg);" class="animable" id="elosu6039zaur"></rect></g><rect x="376.17" y="386.74" width="62.15" height="10.52" style="fill: rgb(199, 199, 199); transform-origin: 407.245px 392px;" id="el7qx1me3ieuf" class="animable"></rect><rect x="382.57" y="453.2" width="49.33" height="10.52" style="fill: rgb(199, 199, 199); transform-origin: 407.235px 458.46px;" id="elvpuc6ad0629" class="animable"></rect></g><g id="freepik--Floor--inject-2" class="animable" style="transform-origin: 250px 463.15px;"><polygon points="41.49 463.15 93.62 462.9 145.75 462.81 250 462.65 354.25 462.81 406.38 462.9 458.51 463.15 406.38 463.39 354.25 463.48 250 463.65 145.75 463.48 93.62 463.39 41.49 463.15" style="fill: rgb(38, 50, 56); transform-origin: 250px 463.15px;" id="elihj63evyz4" class="animable"></polygon></g><g id="freepik--Plant--inject-2" class="animable" style="transform-origin: 84.0906px 357.87px;"><path d="M76.38,379.23a288.71,288.71,0,0,1,.42-30.43,386.6,386.6,0,0,1,9.54-62c2.65-11.48,5.93-22.76,9.34-34,.1-.34.65-.24.55.11-10.55,39.73-19.2,80.72-18.61,122,.17,11.55,1.51,22.9,2.6,34.39,0,.3-.47.43-.54.11C77.5,399.56,76.79,389.27,76.38,379.23Z" style="fill: #195DF8; transform-origin: 86.2017px 331.093px;" id="elbpormr8ms9" class="animable"></path><path d="M96.23,252.88s16,40.57,12.4,50.1-10.95,11.57-10.95,11.57,9.78,14,2.94,27.05-22,12.48-23,27.32C77.6,368.92,76.76,306.85,96.23,252.88Z" style="fill: #195DF8; transform-origin: 93.3839px 310.9px;" id="elc8rrld7bwp" class="animable"></path><path d="M79.34,343.29a.26.26,0,0,1,0-.21,370.87,370.87,0,0,1,15.5-81.6c0-.08.15-.05.13,0Q90.23,279.3,86.6,297.3A17.65,17.65,0,0,1,94.22,293c.06,0,.08.06,0,.08-3,1.28-5.78,2.76-7.87,5.27-.47,2.35-.93,4.7-1.36,7.05,3.57-4,8.52-6,13.48-7.85.07,0,.11.08,0,.11-5.16,2.1-10.3,4.81-13.8,9.26q-1.83,10.1-3.21,20.26a19.28,19.28,0,0,1,9.53-5.46.09.09,0,0,1,.06.17,20.17,20.17,0,0,0-9.67,6.19.1.1,0,0,1,0,0c-.32,2.39-.63,4.77-.91,7.16a24.7,24.7,0,0,1,6.68-4c.06,0,.1.08,0,.1a22.94,22.94,0,0,0-6.69,4.43.18.18,0,0,1-.09,0c-.26,2.27-.53,4.54-.76,6.82A32.41,32.41,0,0,1,93.22,333a.09.09,0,0,1,.06.16,35.46,35.46,0,0,0-13.36,10.28.3.3,0,0,1-.33.11c-.35,3.49-.66,7-.91,10.49,0,0-.09,0-.08,0C78.8,350.46,79.05,346.87,79.34,343.29Z" style="fill: rgb(38, 50, 56); transform-origin: 88.5688px 307.735px;" id="elovgzvm6jy4g" class="animable"></path><path d="M92.18,289a20,20,0,0,1,9.6-3,.06.06,0,1,1,0,.12,38.09,38.09,0,0,0-9.49,3.1C92.16,289.3,92.06,289.09,92.18,289Z" style="fill: rgb(38, 50, 56); transform-origin: 96.9831px 287.619px;" id="eluk20fjs75o" class="animable"></path><path d="M90.24,332a20.19,20.19,0,0,1,7.21-2.47c.08,0,.09.12,0,.14a27,27,0,0,0-7.13,2.5C90.23,332.18,90.15,332,90.24,332Z" style="fill: rgb(38, 50, 56); transform-origin: 93.8572px 330.85px;" id="elzyeddkys5f" class="animable"></path><path d="M41.9,307.21a108.92,108.92,0,0,1,17.26,17.48,66.5,66.5,0,0,1,11.33,22.89,164.59,164.59,0,0,1,5.78,53.18,128.29,128.29,0,0,1-5,29.3.29.29,0,0,1-.55-.15,166,166,0,0,0,3.5-51.6c-1.51-16.94-4.48-35.46-14.12-49.84-5.24-7.83-12-14.19-18.74-20.73C41,307.39,41.53,306.91,41.9,307.21Z" style="fill: #195DF8; transform-origin: 58.8793px 368.67px;" id="elx53z5wbirp8" class="animable"></path><path d="M74.81,388.54a99.87,99.87,0,0,0-12.18-18.18c-7.39-8.56-13.69-14.71-14.34-20.06S57,341.73,57,341.73s-11.18,1.17-13.86-3.68-2.17-31.78-2.17-31.78,19,15.81,26.9,36.58S74.81,388.54,74.81,388.54Z" style="fill: #195DF8; transform-origin: 57.889px 347.405px;" id="el611g3pesb3x" class="animable"></path><path d="M47.36,313.66C55.2,322.57,63.05,332,67.22,343.3a106.42,106.42,0,0,1,3.59,11.88v0c.2.81.4,1.62.59,2.44a.28.28,0,0,1,0,.13A227.83,227.83,0,0,1,75.31,383s-.07.07-.08,0c-.56-4.25-1.2-8.55-2-12.84l-.12,0A17.49,17.49,0,0,0,68,368.4c-.12,0-.09-.23,0-.22a19.87,19.87,0,0,1,5.14,1.34c-.69-3.87-1.47-7.74-2.39-11.56A56.39,56.39,0,0,0,59,355.53s0-.07,0-.06a44.83,44.83,0,0,1,11.63,1.85c-.16-.66-.32-1.31-.49-2a60.06,60.06,0,0,0-7.83-1.93s0-.09,0-.08A38.52,38.52,0,0,1,70,354.86c-.85-3.31-1.8-6.59-2.88-9.78a56.72,56.72,0,0,0-3.25-7.64,49.51,49.51,0,0,0-6.34-1.62.05.05,0,0,1,0-.1,17.13,17.13,0,0,1,6,1c-.93-1.78-1.92-3.53-3-5.24h0c-4.43-1.33-8.92-2.59-13.59-2.06-.08,0-.1-.13,0-.14,4.47-.83,8.77.15,13.07,1.33q-.65-1-1.32-2a30,30,0,0,0-8.31-1.94c-.06,0-.06-.09,0-.09a22,22,0,0,1,7.79,1.27c-3.38-4.9-7.18-9.54-10.92-14.14C47,313.55,47.18,313.44,47.36,313.66Z" style="fill: rgb(38, 50, 56); transform-origin: 61.0911px 348.284px;" id="el114v1avz0wp9" class="animable"></path><path d="M46.25,332a18.46,18.46,0,0,1,4,.16c.16,0,.12.29,0,.28-1.32-.06-2.64-.25-4-.28A.08.08,0,1,1,46.25,332Z" style="fill: rgb(38, 50, 56); transform-origin: 48.2628px 332.198px;" id="elgts2k0f96gb" class="animable"></path><path d="M58.78,359a18.09,18.09,0,0,1,6.1,1.7c.05,0,0,.1,0,.08-2-.63-4.06-1-6.1-1.47C58.58,359.3,58.61,359,58.78,359Z" style="fill: rgb(38, 50, 56); transform-origin: 61.7716px 359.891px;" id="el5mivaz29s3m" class="animable"></path><path d="M63.77,350.36a13.54,13.54,0,0,1,2.61.43.08.08,0,0,1,0,.16,13.6,13.6,0,0,1-2.62-.32A.14.14,0,0,1,63.77,350.36Z" style="fill: rgb(38, 50, 56); transform-origin: 65.0609px 350.655px;" id="elfwshn76n41" class="animable"></path><path d="M126.23,326.9a92,92,0,0,0-17.63,10.81,55.9,55.9,0,0,0-13.86,16.43,138,138,0,0,0-15.43,42.3,107.06,107.06,0,0,0-1.81,24.95.24.24,0,0,0,.47,0A140.09,140.09,0,0,1,85.5,378.5c4.65-13.53,10.8-28.07,21.57-37.89,5.86-5.34,12.69-9.17,19.49-13.17C126.91,327.23,126.59,326.73,126.23,326.9Z" style="fill: #195DF8; transform-origin: 102.052px 374.223px;" id="el9qlxeq81hl7" class="animable"></path><path d="M83,386.74a84.09,84.09,0,0,1,13.62-12.4c7.76-5.5,14.14-9.27,15.75-13.51s-5.35-8.74-5.35-8.74,8.9,3.2,12.06-.22,8.17-25.54,8.17-25.54-18.72,9.09-29.34,24.48S83,386.74,83,386.74Z" style="fill: #195DF8; transform-origin: 105.125px 356.535px;" id="eloho4hdptcsj" class="animable"></path><path d="M83.49,382.24C91.22,362.86,102.4,344.87,119,332c0,0,0,0,0,0a90.54,90.54,0,0,0-11.92,11.65,20.84,20.84,0,0,1,10.73,1.05.06.06,0,0,1,0,.12,28.87,28.87,0,0,0-11-.63s-.08,0-.12,0c-.57.67-1.13,1.34-1.68,2a33.79,33.79,0,0,1,5.69.12s0,.09,0,.08a29,29,0,0,0-6,.17,123.76,123.76,0,0,0-8,11.45,9.57,9.57,0,0,1,4-.15.08.08,0,0,1,0,.15,20.86,20.86,0,0,0-4.18.41c-.46.74-.92,1.47-1.37,2.22a37.78,37.78,0,0,1,12-.16s0,.1,0,.09a47.78,47.78,0,0,0-12.24.56c-.42.71-.82,1.44-1.23,2.16a25.8,25.8,0,0,1,7.13,0c.09,0,.08.15,0,.14a27.09,27.09,0,0,0-7.36.24c-1.77,3.12-3.46,6.3-5.06,9.5a6.68,6.68,0,0,1,3.11-.16,0,0,0,0,1,0,.09,13.31,13.31,0,0,0-3.33.53c-1.44,2.89-2.81,5.81-4.12,8.73C83.78,382.63,83.39,382.49,83.49,382.24Z" style="fill: rgb(38, 50, 56); transform-origin: 101.237px 357.253px;" id="elo8da0sg3vx" class="animable"></path><path d="M97,365.38a15.39,15.39,0,0,1,5.74.07,0,0,0,0,1,0,.09,43.38,43.38,0,0,0-5.7,0A.1.1,0,0,1,97,365.38Z" style="fill: rgb(38, 50, 56); transform-origin: 99.8574px 365.342px;" id="el95x9ifeffjd" class="animable"></path><path d="M111.52,341.21a10,10,0,0,1,2.62-.14.08.08,0,0,1,0,.16c-.87,0-1.71.13-2.57.2A.11.11,0,0,1,111.52,341.21Z" style="fill: rgb(38, 50, 56); transform-origin: 112.827px 341.236px;" id="elkektg8mh5y" class="animable"></path><polygon points="57.29 463.15 101.55 463.15 95.24 410.54 93.63 397.05 65.21 397.05 63.6 410.54 57.29 463.15" style="fill: rgb(69, 90, 100); transform-origin: 79.42px 430.1px;" id="elvdktjqw5ir" class="animable"></polygon><polygon points="63.6 410.54 95.24 410.54 93.63 397.05 65.21 397.05 63.6 410.54" style="fill: rgb(38, 50, 56); transform-origin: 79.42px 403.795px;" id="elnvr7wssl0n9" class="animable"></polygon><g id="elti75z6bt5r"><rect x="61.15" y="392.37" width="36.54" height="11.42" style="fill: rgb(69, 90, 100); transform-origin: 79.42px 398.08px; transform: rotate(180deg);" class="animable" id="ellt1zag6x75"></rect></g></g><g id="freepik--Device--inject-2" class="animable" style="transform-origin: 355.86px 216.58px;"><path d="M429.46,49.91H282.24a15,15,0,0,0-14.89,15.17v303a15,15,0,0,0,14.89,15.17H429.46a15.06,15.06,0,0,0,14.91-15.17v-303A15,15,0,0,0,429.46,49.91Zm5.59,308.84c0,8-6,14.43-13.34,14.43H290c-7.38,0-13.36-6.45-13.36-14.43V76.57c0-16.25,6-17,13.36-17h26.38c1.54,0,2.79,1.75,2.79,3.91v.93c0,5.06,2.77,5.07,6.17,5.07h61c3.43,0,6.19,0,6.19-5.07v-.93c0-2.16,1.23-3.91,2.79-3.91h26.38c7.36,0,13.34,2.16,13.34,17Z" style="fill: rgb(38, 50, 56); transform-origin: 355.86px 216.58px;" id="elzkb25y5pzp" class="animable"></path><path d="M435.05,76.57V358.75c0,8-6,14.43-13.34,14.43H290c-7.38,0-13.36-6.45-13.36-14.43V76.57c0-16.25,6-17,13.36-17h26.38c1.54,0,2.79,1.75,2.79,3.91v.93c0,5.06,2.77,5.07,6.17,5.07h61c3.43,0,6.19,0,6.19-5.07v-.93c0-2.16,1.23-3.91,2.79-3.91h26.38C429.07,59.52,435.05,61.68,435.05,76.57Z" style="fill: rgb(255, 255, 255); transform-origin: 355.845px 216.375px;" id="el7p32ufiqnx5" class="animable"></path><g id="freepik--u5Zjqx--inject-2" class="animable" style="transform-origin: 308.99px 66.65px;"><path d="M311.84,65.86l-.26.26-.14.14a3.48,3.48,0,0,0-4.92,0l-.13-.14-.25-.25h0l0,0,.32-.28a3.9,3.9,0,0,1,.74-.48,4,4,0,0,1,1-.33l.5-.07h.43l.33,0a3.46,3.46,0,0,1,.91.22,4.22,4.22,0,0,1,.61.28,4.13,4.13,0,0,1,.59.41l.27.25Z" style="fill: rgb(199, 199, 199); transform-origin: 308.99px 65.485px;" id="elwlndzqgu6jj" class="animable"></path><path d="M307.33,67.06l-.4-.4a2.9,2.9,0,0,1,4.1,0l-.4.4a2.34,2.34,0,0,0-3.3,0Z" style="fill: rgb(199, 199, 199); transform-origin: 308.98px 66.4356px;" id="elqz9vfbmms9n" class="animable"></path><path d="M310.23,67.46l-.4.4a1.23,1.23,0,0,0-.85-.35,1.16,1.16,0,0,0-.84.36l-.4-.4A1.76,1.76,0,0,1,310.23,67.46Z" style="fill: rgb(199, 199, 199); transform-origin: 308.985px 67.4095px;" id="el5vbk6l21hxn" class="animable"></path><path d="M309.34,68.23a.36.36,0,1,1-.36-.36A.36.36,0,0,1,309.34,68.23Z" style="fill: rgb(199, 199, 199); transform-origin: 308.98px 68.23px;" id="elzz0og54lbg" class="animable"></path></g><path d="M287,66.63a1,1,0,1,1,1,1.05A1,1,0,0,1,287,66.63Z" style="fill: rgb(199, 199, 199); transform-origin: 287.999px 66.68px;" id="elc1u89bcejs6" class="animable"></path><path d="M290.29,66.63a1.05,1.05,0,1,1,1,1.05A1,1,0,0,1,290.29,66.63Z" style="fill: rgb(199, 199, 199); transform-origin: 291.339px 66.6312px;" id="el0vuui0tdgko" class="animable"></path><path d="M293.6,66.63a1,1,0,1,1,1,1.05A1,1,0,0,1,293.6,66.63Z" style="fill: rgb(199, 199, 199); transform-origin: 294.599px 66.68px;" id="elz7sl3pkl1p" class="animable"></path><path d="M296.9,66.63A1.05,1.05,0,1,1,298,67.68,1,1,0,0,1,296.9,66.63Z" style="fill: rgb(199, 199, 199); transform-origin: 297.949px 66.6332px;" id="elh1egxikov4f" class="animable"></path><path d="M300.21,66.63a1.05,1.05,0,1,1,1.05,1.05A1,1,0,0,1,300.21,66.63Z" style="fill: rgb(199, 199, 199); transform-origin: 301.259px 66.6307px;" id="el83cv14cpbu" class="animable"></path><path d="M423.17,68.92h-8.55V65h8.55Zm-8.11-.43h7.67V65.4h-7.67Z" style="fill: rgb(199, 199, 199); transform-origin: 418.895px 66.96px;" id="elylax8j89ohk" class="animable"></path><rect x="415.33" y="65.64" width="5.51" height="2.61" style="fill: rgb(199, 199, 199); transform-origin: 418.085px 66.945px;" id="elea9tgjvoheq" class="animable"></rect><rect x="423.17" y="65.89" width="0.76" height="2.12" style="fill: rgb(199, 199, 199); transform-origin: 423.55px 66.95px;" id="el2yc9que187q" class="animable"></rect><path d="M364.18,63.11H347.53a1,1,0,0,1-1-1h0a1,1,0,0,1,1-1h16.65a1,1,0,0,1,1,1h0A1,1,0,0,1,364.18,63.11Z" style="fill: rgb(255, 255, 255); transform-origin: 355.855px 62.11px;" id="elebpwnpne2sn" class="animable"></path><g id="elc6khwdky2om"><circle cx="355.86" cy="154.85" r="38.08" style="fill: rgb(69, 90, 100); transform-origin: 355.86px 154.85px; transform: rotate(-64.75deg);" class="animable" id="elm5uo6oqxfv"></circle></g><path d="M397.19,154.85A41.42,41.42,0,1,1,394.08,139,41.73,41.73,0,0,1,397.19,154.85Zm0,0a41.22,41.22,0,0,0-25.57-38,41,41,0,1,0,25.57,38.05Z" style="fill: rgb(69, 90, 100); transform-origin: 355.77px 154.747px;" id="elaz0tbaoq57c" class="animable"></path><path d="M309.2,147.34a47.39,47.39,0,1,1,.64,18.43A47.59,47.59,0,0,1,309.2,147.34Zm0,0a47.11,47.11,0,0,0,57.52,53.25,47.06,47.06,0,1,0-51.05-70.51A47.47,47.47,0,0,0,309.2,147.34Z" style="fill: rgb(69, 90, 100); transform-origin: 355.978px 154.942px;" id="elrnkhtnnht6e" class="animable"></path><path d="M352.45,132.87h6.83a4,4,0,0,1,4,4v26a0,0,0,0,1,0,0H348.49a0,0,0,0,1,0,0v-26A4,4,0,0,1,352.45,132.87Z" style="fill: rgb(255, 255, 255); transform-origin: 355.885px 147.87px;" id="elaa6iuv3cm79" class="animable"></path><path d="M355.88,176.82a.89.89,0,0,1-.89-.89V165.45a.9.9,0,0,1,1.79,0v10.48A.89.89,0,0,1,355.88,176.82Z" style="fill: rgb(255, 255, 255); transform-origin: 355.885px 170.732px;" id="el72g8ad957aq" class="animable"></path><path d="M367.06,165.45a.89.89,0,0,1-.89.89H345.53a.89.89,0,0,1,0-1.78h20.64A.89.89,0,0,1,367.06,165.45Z" style="fill: rgb(255, 255, 255); transform-origin: 355.85px 165.45px;" id="el6tegywst5ex" class="animable"></path><path d="M345.53,152.5a.89.89,0,0,1,.9.89v12.06a.9.9,0,0,1-1.79,0V153.39A.89.89,0,0,1,345.53,152.5Z" style="fill: rgb(255, 255, 255); transform-origin: 345.535px 159.378px;" id="el5b7h4hvqmrc" class="animable"></path><path d="M366.17,152.5a.89.89,0,0,1,.89.89v12.06a.9.9,0,0,1-1.79,0V153.39A.89.89,0,0,1,366.17,152.5Z" style="fill: rgb(255, 255, 255); transform-origin: 366.165px 159.378px;" id="elx305iv23mrl" class="animable"></path><path d="M361.59,176.82H350.13a.9.9,0,0,1,0-1.79h11.46a.9.9,0,0,1,0,1.79Z" style="fill: rgb(255, 255, 255); transform-origin: 355.86px 175.925px;" id="el67fqkxnxi7s" class="animable"></path><g id="elyrdglu2qd4a"><path d="M432.18,269.24h0c-8.51,0-19.17.85-21.4,1.66-14.86,5.44-14.6,17.12-19.91,17.12-4.09,0-12-17.49-19.07-17.49s-9,6.05-13.86,6.05-6.05-6.05-17.12-6.05-14,11.33-20.42,11.33-13.12-12-20.93-12-20-.64-20-.64h0s12.14-.65,20-.65,14.51-12,20.93-12S329.75,268,340.82,268s12.28-6.05,17.12-6.05S364.73,268,371.8,268s15-17.5,19.07-17.5c5.31,0,5.05,11.68,19.91,17.12C413,268.39,423.67,269.24,432.18,269.24Z" style="fill: #195DF8; opacity: 0.4; transform-origin: 355.825px 269.26px;" class="animable" id="elsa2zitqctlp"></path></g><g id="elvgkkik0oxva"><path d="M432.18,269.24h0c-11.07,0-13.68,21.85-22.88,21.85-6.62,0-13.33-17.84-21.89-17.84-8.17,0-8.68,7.72-13.7,7.72s-7.86-11-15.77-11c-9.37,0-11.66,24.88-19.75,24.88s-11.65-23.16-19.26-23.16-8.16,3.75-14.68,3.75-12.45-5.57-19.15-5.57c-4.75,0-5.58-.64-5.58-.64h0s.83-.65,5.58-.65c6.7,0,12.62-5.56,19.15-5.56s7.08,3.75,14.68,3.75,11.17-23.16,19.26-23.16,10.38,24.88,19.75,24.88c7.91,0,10.61-11,15.77-11s5.53,7.73,13.7,7.73c8.56,0,15.27-17.84,21.89-17.84C418.5,247.39,421.11,269.24,432.18,269.24Z" style="fill: #195DF8; opacity: 0.6; transform-origin: 355.85px 269.23px;" class="animable" id="el0c4tejutb5rt"></path></g><path d="M279.52,269.24a13.89,13.89,0,0,0,5.32-1.23,18.89,18.89,0,0,0,4.46-3.16c1.35-1.24,2.58-2.61,3.87-3.92a20.88,20.88,0,0,1,4.27-3.56,9.85,9.85,0,0,1,5.41-1.38,11.45,11.45,0,0,1,5.21,2.05c3.12,2,5.83,4.54,8.92,6.46a16.71,16.71,0,0,0,4.9,2.16,12.06,12.06,0,0,0,5.28,0,11,11,0,0,0,4.72-2.33c.72-.56,1.41-1.16,2.2-1.71a6.65,6.65,0,0,1,2.67-1.18,6.11,6.11,0,0,1,2.94.16,8.91,8.91,0,0,1,2.57,1.31c1.56,1.08,2.89,2.34,4.37,3.36a12.42,12.42,0,0,0,4.81,2.19,9.51,9.51,0,0,0,5.16-.28,12,12,0,0,0,4.33-3c1.27-1.28,2.39-2.71,3.56-4.15a26.38,26.38,0,0,1,3.86-4.06,8,8,0,0,1,5.39-1.88,8.54,8.54,0,0,1,5.26,2.18,28.2,28.2,0,0,1,3.77,4.13,28.66,28.66,0,0,0,3.61,4.05c.34.29.7.53,1.05.8s.76.42,1.15.62.82.28,1.24.38.86.11,1.29.12a11.93,11.93,0,0,0,5.18-1.17,42.83,42.83,0,0,0,4.68-2.83,12.49,12.49,0,0,1,5.22-2,11,11,0,0,1,5.5.95c3.43,1.5,6.31,3.85,9.61,5.45a12.53,12.53,0,0,0,5.25,1.41l5.51.06-5.51.06A12.56,12.56,0,0,1,421.2,268c-3.37-1.54-6.32-3.84-9.69-5.21a10.48,10.48,0,0,0-5.25-.85,11.73,11.73,0,0,0-4.95,2,43,43,0,0,1-4.72,2.92,12.65,12.65,0,0,1-5.47,1.31c-.48,0-1-.08-1.45-.12s-.93-.27-1.4-.4-.87-.44-1.28-.68-.79-.55-1.16-.85a29.78,29.78,0,0,1-3.74-4.15,27.35,27.35,0,0,0-3.66-4,7.65,7.65,0,0,0-4.73-2,7,7,0,0,0-4.77,1.71,24.71,24.71,0,0,0-3.7,3.93c-1.15,1.42-2.29,2.89-3.6,4.23a12.9,12.9,0,0,1-4.69,3.22c-3.72,1.32-7.86.18-10.86-2.06-1.53-1.07-2.88-2.36-4.35-3.38a8.31,8.31,0,0,0-2.31-1.19,5.16,5.16,0,0,0-2.5-.15c-1.7.26-3,1.57-4.49,2.7a12.18,12.18,0,0,1-5.09,2.48,12.83,12.83,0,0,1-5.65,0,17.45,17.45,0,0,1-5.12-2.32c-3.14-2-5.83-4.57-8.85-6.59a11,11,0,0,0-4.91-2,9.39,9.39,0,0,0-5.13,1.24,20.89,20.89,0,0,0-4.25,3.4c-1.32,1.27-2.58,2.62-4,3.84a19.56,19.56,0,0,1-4.57,3.09A14,14,0,0,1,279.52,269.24Z" style="fill: #195DF8; transform-origin: 355.79px 262.354px;" id="elp7tliefamws" class="animable"></path><path d="M432.06,269.24l-5.51.06a12.38,12.38,0,0,0-5.25,1.41c-3.3,1.59-6.18,3.94-9.61,5.43a10.91,10.91,0,0,1-5.5,1,12.49,12.49,0,0,1-5.22-2,42.83,42.83,0,0,0-4.68-2.83,12.07,12.07,0,0,0-5.18-1.17c-.44,0-.86.09-1.29.12s-.83.26-1.24.38-.78.4-1.15.62-.72.52-1.06.8a29.89,29.89,0,0,0-3.61,4.05,27.65,27.65,0,0,1-3.76,4.14,8.53,8.53,0,0,1-5.26,2.17,7.89,7.89,0,0,1-5.38-1.88,26,26,0,0,1-3.87-4.06c-1.16-1.43-2.29-2.87-3.56-4.15a12,12,0,0,0-4.33-3,9.41,9.41,0,0,0-5.16-.28,12.4,12.4,0,0,0-4.81,2.18c-1.48,1-2.81,2.28-4.37,3.36a8.93,8.93,0,0,1-2.57,1.32,6,6,0,0,1-2.94.15,6.5,6.5,0,0,1-2.67-1.17c-.79-.55-1.48-1.16-2.2-1.72a11.26,11.26,0,0,0-4.72-2.33,12,12,0,0,0-5.27,0A16.88,16.88,0,0,0,317,274c-3.09,1.92-5.8,4.43-8.92,6.46a11.45,11.45,0,0,1-5.21,2.05,9.77,9.77,0,0,1-5.41-1.38,20.88,20.88,0,0,1-4.27-3.56c-1.29-1.3-2.52-2.67-3.87-3.92a19.18,19.18,0,0,0-4.46-3.16,13.7,13.7,0,0,0-5.32-1.22,13.85,13.85,0,0,1,5.38,1.11,19.87,19.87,0,0,1,4.57,3.09c1.38,1.22,2.64,2.57,4,3.84a20.89,20.89,0,0,0,4.25,3.4,9.39,9.39,0,0,0,5.13,1.24,10.94,10.94,0,0,0,4.91-2c3-2,5.71-4.57,8.85-6.58a17.45,17.45,0,0,1,5.12-2.32,12.68,12.68,0,0,1,5.65,0,12.1,12.1,0,0,1,5.09,2.47c1.47,1.13,2.79,2.44,4.49,2.7a5.29,5.29,0,0,0,2.5-.14,8.35,8.35,0,0,0,2.31-1.2c1.47-1,2.82-2.3,4.36-3.38,3-2.23,7.13-3.38,10.85-2.06a13.15,13.15,0,0,1,4.69,3.22c1.31,1.35,2.45,2.81,3.6,4.24a24.71,24.71,0,0,0,3.7,3.93,7,7,0,0,0,4.77,1.7,7.63,7.63,0,0,0,4.73-1.94,27.43,27.43,0,0,0,3.66-4,29.15,29.15,0,0,1,3.74-4.14c.37-.31.77-.57,1.16-.86s.85-.45,1.28-.67.93-.31,1.4-.41,1-.11,1.45-.12a12.94,12.94,0,0,1,5.47,1.31,43,43,0,0,1,4.72,2.93,11.84,11.84,0,0,0,4.95,2,10.59,10.59,0,0,0,5.25-.84c3.37-1.38,6.32-3.67,9.69-5.21a12.42,12.42,0,0,1,5.35-1.31Z" style="fill: #195DF8; transform-origin: 355.8px 276.153px;" id="elrswgktz2elm" class="animable"></path><rect x="328.85" y="323.88" width="54.03" height="16.99" style="fill: #195DF8; transform-origin: 355.865px 332.375px;" id="elfhau8q34ox9" class="animable"></rect><path d="M342,332.17a2.59,2.59,0,0,1,4.19-2,.4.4,0,0,1-.49.63,1.75,1.75,0,0,0-1.13-.38,1.85,1.85,0,0,0-1.26.5,1.74,1.74,0,0,0-.51,1.22,1.72,1.72,0,0,0,.51,1.22,1.85,1.85,0,0,0,1.26.5,1.75,1.75,0,0,0,1.13-.38.42.42,0,0,1,.56.08.41.41,0,0,1-.07.56,2.63,2.63,0,0,1-1.62.54A2.57,2.57,0,0,1,342,332.17Z" style="fill: rgb(255, 255, 255); transform-origin: 344.17px 332.138px;" id="elqis9us56icr" class="animable"></path><path d="M350,333.54h-1.7l-.34.91a.39.39,0,0,1-.36.24.32.32,0,0,1-.14,0,.4.4,0,0,1-.23-.5L348.8,330a.39.39,0,0,1,.37-.24.38.38,0,0,1,.37.24l1.55,4.13a.4.4,0,0,1-.23.5.32.32,0,0,1-.14,0,.37.37,0,0,1-.35-.24Zm-.28-.77-.57-1.51-.57,1.51Z" style="fill: rgb(255, 255, 255); transform-origin: 349.16px 332.229px;" id="elm1wjqei6eki" class="animable"></path><path d="M352.82,334.31a.39.39,0,0,1-.38.38.37.37,0,0,1-.38-.38v-4.07h0a.35.35,0,0,1,.15-.32.39.39,0,0,1,.53.08l2.26,3.13v-2.88a.39.39,0,0,1,.38-.38.4.4,0,0,1,.39.38v4.07a.39.39,0,0,1-.39.38.37.37,0,0,1-.29-.14l0,0-2.24-3.11Z" style="fill: rgb(255, 255, 255); transform-origin: 353.914px 332.275px;" id="elt5ryvinku2r" class="animable"></path><path d="M357.23,332.17a2.59,2.59,0,0,1,4.19-2,.42.42,0,0,1,.07.56.41.41,0,0,1-.56.07,1.75,1.75,0,0,0-1.13-.38,1.85,1.85,0,0,0-1.26.5,1.74,1.74,0,0,0-.51,1.22,1.72,1.72,0,0,0,.51,1.22,1.85,1.85,0,0,0,1.26.5,1.77,1.77,0,0,0,1.13-.38.4.4,0,0,1,.49.64,2.63,2.63,0,0,1-1.62.54A2.57,2.57,0,0,1,357.23,332.17Z" style="fill: rgb(255, 255, 255); transform-origin: 359.404px 332.138px;" id="elo8v033b7qq" class="animable"></path><path d="M362.85,334.31v-4.13a.38.38,0,0,1,.38-.39h2.29a.39.39,0,0,1,.39.39.4.4,0,0,1-.39.39h-1.9v1.28h1.64a.39.39,0,0,1,.38.38.39.39,0,0,1-.38.4h-1.64v1.28h1.9a.4.4,0,0,1,.39.4.39.39,0,0,1-.39.38h-2.29A.38.38,0,0,1,362.85,334.31Z" style="fill: rgb(255, 255, 255); transform-origin: 364.38px 332.24px;" id="elj1vcc22ngx" class="animable"></path><path d="M367,334.31v-4.13a.39.39,0,0,1,.39-.39.4.4,0,0,1,.39.39v3.73h1.9a.4.4,0,0,1,.38.4.39.39,0,0,1-.38.38h-2.29A.38.38,0,0,1,367,334.31Z" style="fill: rgb(255, 255, 255); transform-origin: 368.53px 332.24px;" id="el8j74gi48dnx" class="animable"></path><path d="M341.48,229.59H338.6V232a.19.19,0,0,1-.2.19.19.19,0,0,1-.19-.19v-5.21a.2.2,0,0,1,.19-.19.2.2,0,0,1,.2.19v2.41h2.88v-2.41a.2.2,0,0,1,.19-.19.2.2,0,0,1,.2.19V232a.19.19,0,0,1-.2.19.19.19,0,0,1-.19-.19Z" style="fill: rgb(55, 71, 79); transform-origin: 340.04px 229.395px;" id="eln7iix3po3g" class="animable"></path><path d="M343.51,230.24a1.9,1.9,0,0,1,3.79-.14h0v0a.18.18,0,0,1-.19.18H343.9a1.54,1.54,0,0,0,1.52,1.5,1.46,1.46,0,0,0,1.26-.71.2.2,0,0,1,.26-.07.22.22,0,0,1,.06.28,1.87,1.87,0,0,1-1.58.88A1.93,1.93,0,0,1,343.51,230.24Zm.41-.31h3a1.52,1.52,0,0,0-1.47-1.27A1.54,1.54,0,0,0,343.92,229.93Z" style="fill: rgb(55, 71, 79); transform-origin: 345.405px 230.274px;" id="ellub7z5i2mcj" class="animable"></path><path d="M352,228.47V232a.19.19,0,0,1-.38,0v-.58a1.84,1.84,0,0,1-1.47.77,2,2,0,0,1,0-3.91,1.83,1.83,0,0,1,1.47.76v-.57a.19.19,0,0,1,.38,0Zm-.38,1.76a1.47,1.47,0,1,0-1.47,1.58A1.53,1.53,0,0,0,351.57,230.23Z" style="fill: rgb(55, 71, 79); transform-origin: 350.286px 230.235px;" id="elqq5mb79jaal" class="animable"></path><path d="M353.62,228.48a.19.19,0,0,1,.2-.2.19.19,0,0,1,.18.2v.86s0-.06.06-.1a1.88,1.88,0,0,1,1.57-1,.19.19,0,0,1,.19.2.2.2,0,0,1-.19.19,1.41,1.41,0,0,0-1.14.64,3.41,3.41,0,0,0-.47.91.1.1,0,0,0,0,.06V232a.19.19,0,0,1-.18.19.19.19,0,0,1-.2-.19Z" style="fill: rgb(55, 71, 79); transform-origin: 354.72px 230.215px;" id="eldihpdfefp6m" class="animable"></path><path d="M357.14,227.19a.19.19,0,0,1,.19-.19.19.19,0,0,1,.2.19v.18a.2.2,0,1,1-.39,0Zm0,1.28a.19.19,0,0,1,.19-.19.19.19,0,0,1,.2.19V232a.19.19,0,0,1-.2.19.19.19,0,0,1-.19-.19Z" style="fill: rgb(55, 71, 79); transform-origin: 357.335px 229.595px;" id="els5cnnu683t" class="animable"></path><path d="M362.18,229.88a1.21,1.21,0,0,0-1.21-1.21,1.24,1.24,0,0,0-1.22,1.21V232a.1.1,0,0,1,0,.09.15.15,0,0,1-.14.07h-.05a.21.21,0,0,1-.13-.1v-3.61a.19.19,0,1,1,.37,0v.37a1.61,1.61,0,0,1,1.22-.57,1.6,1.6,0,0,1,1.59,1.6V232a.19.19,0,0,1-.19.19.18.18,0,0,1-.19-.19Z" style="fill: rgb(55, 71, 79); transform-origin: 361.017px 230.203px;" id="ellaezxxdsc2i" class="animable"></path><path d="M367.7,231.88a1.84,1.84,0,0,1-1.84,1.84,2.08,2.08,0,0,1-.82-.18.21.21,0,0,1-.08-.26.19.19,0,0,1,.26-.09,1.37,1.37,0,0,0,.64.15,1.46,1.46,0,0,0,1.46-1.46v-.48a1.78,1.78,0,0,1-1.46.77,1.95,1.95,0,0,1,0-3.89,1.79,1.79,0,0,1,1.46.76v-.57a.19.19,0,0,1,.2-.19.18.18,0,0,1,.18.19Zm-.38-1.66a1.46,1.46,0,1,0-1.46,1.57A1.51,1.51,0,0,0,367.32,230.22Z" style="fill: rgb(55, 71, 79); transform-origin: 365.875px 231px;" id="elr3j9oxky86e" class="animable"></path><path d="M369.87,231.39a.39.39,0,0,1,.4.4.39.39,0,0,1-.4.4.39.39,0,0,1-.4-.4A.4.4,0,0,1,369.87,231.39Z" style="fill: rgb(55, 71, 79); transform-origin: 369.87px 231.79px;" id="el1478tqeo12gr" class="animable"></path><path d="M371.71,231.39a.39.39,0,0,1,.4.4.39.39,0,0,1-.4.4.39.39,0,0,1-.4-.4A.4.4,0,0,1,371.71,231.39Z" style="fill: rgb(55, 71, 79); transform-origin: 371.71px 231.79px;" id="el2zjhcz45l4m" class="animable"></path><path d="M373.55,231.39a.39.39,0,0,1,.4.4.39.39,0,0,1-.4.4.39.39,0,0,1-.4-.4A.4.4,0,0,1,373.55,231.39Z" style="fill: rgb(55, 71, 79); transform-origin: 373.55px 231.79px;" id="el7y8jmu2o7ju" class="animable"></path></g><g id="freepik--Lines--inject-2" class="animable" style="transform-origin: 200.945px 115.435px;"><path d="M198.93,106.12a7.93,7.93,0,0,1,.59,3.52,8.58,8.58,0,0,1-.9,3.53,8.77,8.77,0,0,1-2.26,2.86,10,10,0,0,1-1.47,1,13.17,13.17,0,0,1-1.64.72c.45-.41.92-.73,1.35-1.12a13.84,13.84,0,0,0,1.22-1.2,10.88,10.88,0,0,0,1.9-2.73A13,13,0,0,0,198.93,106.12Z" style="fill: rgb(38, 50, 56); transform-origin: 196.392px 111.935px;" id="el4r7antaez0i" class="animable"></path><path d="M202.87,106.09a10.69,10.69,0,0,1,.65,4.46,11.09,11.09,0,0,1-1.17,4.43,11.22,11.22,0,0,1-2.81,3.62,12.75,12.75,0,0,1-1.85,1.33,20.9,20.9,0,0,1-2,1c.58-.49,1.2-.88,1.75-1.37A17.39,17.39,0,0,0,199,118l.73-.79.64-.86a8.6,8.6,0,0,0,.58-.9,6.56,6.56,0,0,0,.51-.94,13.63,13.63,0,0,0,1.29-4.07A17.78,17.78,0,0,0,202.87,106.09Z" style="fill: rgb(38, 50, 56); transform-origin: 199.617px 113.51px;" id="el4adrgxvpvl7" class="animable"></path><path d="M207.89,106.2a14.06,14.06,0,0,1,.71,5.59,14.39,14.39,0,0,1-1.48,5.51,14.18,14.18,0,0,1-3.49,4.52,16.4,16.4,0,0,1-2.28,1.69c-.81.47-1.67.88-2.51,1.27.73-.59,1.53-1.07,2.23-1.67l1-.9a7.41,7.41,0,0,0,1-1l.93-1,.82-1.09a8.8,8.8,0,0,0,.74-1.13,7.47,7.47,0,0,0,.64-1.18,16.5,16.5,0,0,0,1.61-5.16A21.08,21.08,0,0,0,207.89,106.2Z" style="fill: rgb(38, 50, 56); transform-origin: 203.74px 115.49px;" id="elaiygf9oq5ef" class="animable"></path></g><g id="freepik--Character--inject-2" class="animable" style="transform-origin: 169.172px 261.32px;"><path d="M110.78,350l-25.9,32.94c-5.28,7-9.8,13.21-11.83,16.65,0,0,0,0,0,.06a6.05,6.05,0,0,0-1.12,2.55.15.15,0,0,0,0,.07c1,3,55.65,46.88,58.08,47.77s5.14-5.94,4.38-9.33-14.17-29.57-14.17-29.57l24.36-33.92Z" style="fill: rgb(235, 148, 129); transform-origin: 108.253px 400.06px;" id="elfrkiv174g5" class="animable"></path><path d="M130,450c-2.42-.88-57.07-44.78-58.08-47.77,0,0,0,0,0-.07A6.16,6.16,0,0,1,73,399.63a.06.06,0,0,1,0-.05c2-3.45,6.54-9.67,11.83-16.66,0,0,1.27-1.62,3.25-4.12l35.28,27.84-3.22,4.48s13.4,26.16,14.18,29.56S132.41,450.92,130,450Z" style="fill: rgb(219, 219, 219); transform-origin: 103.189px 414.442px;" id="elzt8q9xgw4ep" class="animable"></path><path d="M130,450c-2.43-.89-57.07-44.78-58.08-47.77-.41-1.13,5.52-9.46,13-19.33a3.55,3.55,0,0,0,.23-.31l35.57,27.93-.49.58s13.4,26.16,14.17,29.57S132.41,450.92,130,450Z" style="fill: rgb(38, 50, 56); transform-origin: 103.216px 416.337px;" id="elpk6nb179c0r" class="animable"></path><path d="M131.07,447.41c-9-7.63-46.16-37.53-55.67-44.38-.08-.06-.12,0-.05.06,8.79,7.75,46.17,37.35,55.6,44.47C131.15,447.71,131.26,447.57,131.07,447.41Z" style="fill: rgb(255, 255, 255); transform-origin: 103.241px 425.315px;" id="el6i6bs3diehu" class="animable"></path><path d="M123.07,413.61c-3.08-3.59-8-6.59-12.8-6.24-.19,0-.17.29,0,.34a65.69,65.69,0,0,1,12.44,6.35A.3.3,0,0,0,123.07,413.61Z" style="fill: rgb(255, 255, 255); transform-origin: 116.63px 410.712px;" id="elp17kk21pbc" class="animable"></path><path d="M124.42,417.29c-3.08-3.59-8-6.59-12.8-6.24-.19,0-.17.28,0,.34A65.64,65.64,0,0,1,124,417.73.29.29,0,0,0,124.42,417.29Z" style="fill: rgb(255, 255, 255); transform-origin: 118px 414.418px;" id="elxun6t87yuq9" class="animable"></path><path d="M125.77,421c-3.08-3.59-8-6.6-12.8-6.24-.19,0-.17.28,0,.34a65.06,65.06,0,0,1,12.44,6.34A.29.29,0,0,0,125.77,421Z" style="fill: rgb(255, 255, 255); transform-origin: 119.335px 418.102px;" id="elgqcripfe3e6" class="animable"></path><path d="M132.39,448.73c.68,1.17-2.17,4.28-3.09,4S69,404.28,68.19,403.24s2.46-4.37,3.79-3.61S132.39,448.73,132.39,448.73Z" style="fill: #195DF8; transform-origin: 100.278px 426.133px;" id="elky1tmx7ms1q" class="animable"></path><path d="M89.23,396c-2.37-5.16-10.4-1.49-8,3.68S91.6,401.15,89.23,396Z" style="fill: rgb(255, 255, 255); transform-origin: 85.2263px 397.84px;" id="eln3wfs07qcnm" class="animable"></path><path d="M94.67,369.39l34.89,29s55.9-65.95,57.95-75.86c2.33-11.26,8.81-99.46,8.66-103.86-.18-5.33-6.06-28.76-6.06-28.76H148.24s-5.86,115.35-7.08,118.92C139.85,312.71,94.67,369.39,94.67,369.39Z" style="fill: rgb(55, 71, 79); transform-origin: 145.421px 294.15px;" id="elgl655lgpip" class="animable"></path><polygon points="90.97 374.9 95.88 365.64 132.15 397.45 125.02 403.7 90.97 374.9" style="fill: rgb(69, 90, 100); transform-origin: 111.56px 384.67px;" id="elws11xcu7bd" class="animable"></polygon><path d="M132.86,389.68c-5.39-5.2-26.45-21.93-29.07-23.3-.05,0-.13.07-.09.12,1.9,2.26,19.82,17,29,23.36C132.82,389.92,133,389.77,132.86,389.68Z" style="fill: rgb(38, 50, 56); transform-origin: 118.3px 378.127px;" id="el1z0bwsjfzdch" class="animable"></path><path d="M192.18,207.29a14,14,0,0,0-1.7-.4,10.24,10.24,0,0,1-1.76-.67,13.11,13.11,0,0,1-3.23-2.29,12.1,12.1,0,0,1-2.48-4c-.37-.84-2.08-5.34-2.09-5.37s-.18,0-.15.07c.11.62,1.29,4.5,1.63,5.47a12.62,12.62,0,0,0,2.59,4.63,10.3,10.3,0,0,0,3.57,2.41,7.59,7.59,0,0,0,1.92.51,3.06,3.06,0,0,0,1.75-.1C192.33,207.52,192.26,207.33,192.18,207.29Z" style="fill: rgb(38, 50, 56); transform-origin: 186.523px 201.141px;" id="elxmian23x38t" class="animable"></path><path d="M155.15,192l-.88,23.17-1,23.16L151,284.63c-.42,7.72-.83,15.43-1.32,23.15-.05,1-.13,1.94-.23,2.94a1.3,1.3,0,0,1-.09.44c-.06.13-.12.26-.18.37s-.26.44-.4.64c-.26.42-.54.82-.82,1.22-1.12,1.59-2.28,3.13-3.45,4.67-2.34,3.08-4.75,6.11-7.15,9.13q-7.23,9.07-14.56,18.05l-14.76,17.87L122.48,345q7.2-9.09,14.33-18.22c2.38-3,4.73-6.11,7.06-9.18,1.16-1.54,2.32-3.09,3.42-4.66.27-.4.54-.79.8-1.19s.56-.8.53-1.13c.08-.93.16-1.87.21-2.85.45-7.7.83-15.42,1.22-23.14l2.45-46.3,1.27-23.14Z" style="fill: rgb(38, 50, 56); transform-origin: 131.595px 277.555px;" id="el5mnr6v8ppic" class="animable"></path><path d="M188.35,316.42c-.31,2.84-.59,5-.84,6.15-1.15,5.56-19.29,28.8-35,48.11l-10.76-67.62c1.92-24,6.45-113.11,6.45-113.11h20.87Z" style="fill: rgb(38, 50, 56); transform-origin: 165.05px 280.315px;" id="elqmeb0fsy47" class="animable"></path><path d="M161.57,396.14s8.1,41.07,8.1,41.1c1.86,8.57,3.64,16.05,4.92,19.83a.14.14,0,0,0,0,.06,6,6,0,0,0,1.21,2.51s0,0,.06,0c2.92,1.18,71.83-11.65,74.08-12.91s-1.15-7.77-4.22-9.41-31.66-8.52-31.66-8.52l-9.85-40.59Z" style="fill: rgb(235, 148, 129); transform-origin: 206.119px 423.963px;" id="elvzschr83s38" class="animable"></path><path d="M250,446.77c-2.25,1.26-71.16,14.09-74.09,12.91,0,0,0,0-.06,0a6.15,6.15,0,0,1-1.2-2.51.07.07,0,0,1,0-.06c-1.29-3.78-3.07-11.26-4.92-19.83,0,0-.4-2-1-5.15l44.11-8.61,1.3,5.36s28.57,6.89,31.66,8.52S252.22,445.52,250,446.77Z" style="fill: rgb(219, 219, 219); transform-origin: 209.726px 441.638px;" id="elj37dodam3o" class="animable"></path><path d="M250,446.77c-2.25,1.26-71.15,14.09-74.08,12.91-1.13-.43-3.58-10.36-6.2-22.44,0-.13-.06-.26-.08-.38L214,428.08l.12.76s28.57,6.89,31.66,8.52S252.22,445.52,250,446.77Z" style="fill: rgb(38, 50, 56); transform-origin: 210.179px 443.918px;" id="el3qo9yfbqln3" class="animable"></path><path d="M248.69,444.24c-11.67,1.88-58.55,10.56-69.94,13.3-.1,0-.09.09,0,.07,11.6-1.61,58.41-10.66,70-13.18C249,444.38,248.93,444.21,248.69,444.24Z" style="fill: rgb(255, 255, 255); transform-origin: 213.793px 450.925px;" id="eliqauv4j1bib" class="animable"></path><path d="M217.84,428.28c-4.73,0-10.19,1.74-13.07,5.65-.12.15.1.31.24.23a65.49,65.49,0,0,1,12.92-5.3A.3.3,0,0,0,217.84,428.28Z" style="fill: rgb(255, 255, 255); transform-origin: 211.429px 431.231px;" id="elh4gh2nf0biv" class="animable"></path><path d="M221.51,429.65c-4.73,0-10.19,1.75-13.07,5.65-.12.15.1.31.24.24a65.28,65.28,0,0,1,12.92-5.31A.3.3,0,0,0,221.51,429.65Z" style="fill: rgb(255, 255, 255); transform-origin: 215.099px 432.603px;" id="elzctmxeggvcm" class="animable"></path><path d="M225.18,431c-4.73,0-10.19,1.74-13.08,5.65-.11.15.11.3.25.23a65,65,0,0,1,12.92-5.3A.3.3,0,0,0,225.18,431Z" style="fill: rgb(255, 255, 255); transform-origin: 218.767px 433.949px;" id="elah0q9aieuai" class="animable"></path><path d="M250.55,444.11c1.33.24,1.83,4.43,1,4.93s-76,14.16-77.34,14.11-1.72-4.72-.28-5.23S250.55,444.11,250.55,444.11Z" style="fill: #195DF8; transform-origin: 212.484px 453.63px;" id="elaanrljhn0k5" class="animable"></path><path d="M182.41,442.46c-5.46-1.57-7.9,6.91-2.43,8.48S187.88,444,182.41,442.46Z" style="fill: rgb(255, 255, 255); transform-origin: 181.196px 446.7px;" id="eljxch2segih9" class="animable"></path><path d="M181.78,190s-1.1,17.9-6,30.66c0,0-7.13,4.44-7.87,5.14L212.58,417l-46.8,8.57s-16.08-92.84-17.54-99.18c-2.33-10.2-20.8-96.84-21.62-101.77-1.71-10.29,7.79-34.67,7.79-34.67Z" style="fill: rgb(55, 71, 79); transform-origin: 169.497px 307.76px;" id="el9jh3kmghn5j" class="animable"></path><path d="M205.85,407.31c-12,1.79-34.84,6.64-37.65,7.81-.07,0,0,.15,0,.15,3,0,30.91-5.58,37.66-7.74C206,407.49,206,407.29,205.85,407.31Z" style="fill: rgb(38, 50, 56); transform-origin: 187.066px 411.289px;" id="elu9xheg7pfai" class="animable"></path><path d="M139.77,207.3c.87-.19,1.8-.13,2.68-.25a19.75,19.75,0,0,0,2.76-.52,20.13,20.13,0,0,0,4.95-2,10.42,10.42,0,0,0,3.59-3.81c.51-.82,2.82-5.22,2.85-5.25s.27,0,.25.08c-.13.62-1.65,4.45-2.11,5.4a10.41,10.41,0,0,1-3.71,4.46,16.18,16.18,0,0,1-5.49,2.11,16.93,16.93,0,0,1-3,.34,7.77,7.77,0,0,1-2.8-.26C139.56,207.52,139.64,207.33,139.77,207.3Z" style="fill: rgb(38, 50, 56); transform-origin: 148.243px 201.675px;" id="elt0hvfvmmem" class="animable"></path><path d="M176.77,220.12a73,73,0,0,0-11.46,5.22.13.13,0,0,0,.1.24c3.86-1.62,7.8-3.17,11.57-5A.26.26,0,0,0,176.77,220.12Z" style="fill: rgb(38, 50, 56); transform-origin: 171.155px 222.853px;" id="elpf7tqgm357" class="animable"></path><path d="M178.23,193.74c0-.13-.24-.17-.24,0,0,4.56-.34,8.58-.76,12.85-.2,2-1.89,12.91-5.32,12.08-.57-.14-.86-.71-.94-1.57a13.83,13.83,0,0,1,.48-3.36c.41-2.29.73-4.58,1-6.9a63,63,0,0,0,0-12.95.11.11,0,1,0-.22,0A118.72,118.72,0,0,1,171,211.75c-.46,2.84-1.93,7.12,1,7.59s5.06-6.7,5.45-8.66A65.39,65.39,0,0,0,178.23,193.74Z" style="fill: rgb(38, 50, 56); transform-origin: 174.342px 206.495px;" id="elgdw79yfq2pr" class="animable"></path><path d="M172,219a17.78,17.78,0,0,0-.79,2.26,5.23,5.23,0,0,0-.34,1.86c0,.12.17.14.24.06a6.86,6.86,0,0,0,.81-1.81c.27-.7.55-1.4.8-2.1A.38.38,0,0,0,172,219Z" style="fill: rgb(38, 50, 56); transform-origin: 171.807px 220.989px;" id="eln6lp8ol55h" class="animable"></path><path d="M138,190c-1.19,4.54-2.31,9.1-3.33,13.67s-2,9.18-2.56,13.81l-.16,1.74c-.05.58,0,1.16-.06,1.74l.52,3.44,1.31,6.91L136.5,245,148,300.15l11.51,55.1,5.71,27.57,5.64,27.57-6.11-27.47-6-27.51L147,300.35c-3.81-18.37-7.64-36.74-11.28-55.16l-2.66-13.82-1.25-6.93-.49-3.52a29.64,29.64,0,0,1,.26-3.54c.66-4.67,1.71-9.25,2.8-13.81S136.71,194.47,138,190Z" style="fill: rgb(38, 50, 56); transform-origin: 151.09px 300.195px;" id="elzsqkf6758vn" class="animable"></path><polygon points="166.39 429.37 162.08 419.83 212.75 410.53 213.33 420 166.39 429.37" style="fill: rgb(69, 90, 100); transform-origin: 187.705px 419.95px;" id="els9g2578la68" class="animable"></polygon><path d="M194.59,103.41a5.52,5.52,0,0,0,3.6-9.35,5.07,5.07,0,0,0,4.54-4.24A4.85,4.85,0,0,0,199,84.54s0,0,0,0a5,5,0,0,1,3.32,5.18A4.47,4.47,0,0,1,199,93.42a6.14,6.14,0,0,0,2.48-4.19A4.73,4.73,0,0,0,199,84.62a7,7,0,0,0,.45-6.24A4.74,4.74,0,0,0,195,75.66a5.28,5.28,0,0,0-7.31-6.41A4.44,4.44,0,0,0,182.37,64a3,3,0,0,0-1.69-2.75,5,5,0,0,0-3.84,0,3.58,3.58,0,0,0-2.94-1.76,3.24,3.24,0,0,0-3.22,2.69c-2-.66-4.33-1.09-6.35-.19a4.66,4.66,0,0,0-2.91,4.22,6.43,6.43,0,0,0-7.58,5.92,4.52,4.52,0,0,0-3.61,2.7,6.8,6.8,0,0,0-.66,3.15,3.38,3.38,0,0,0-2.7,2.88,4.47,4.47,0,0,0,1.29,3.6,2.67,2.67,0,0,1-.08,1.14A5.88,5.88,0,0,0,149.19,91a4,4,0,0,0,1.62,5.79,4.5,4.5,0,0,0,3.08,5.52,6.6,6.6,0,0,0,1.27,5.32,3.82,3.82,0,0,0,3.87,1.58,2.29,2.29,0,0,0,2.1,2.23,5.4,5.4,0,0,0,1.27,0,5.2,5.2,0,0,1,1.62-.07c.51.15.84.67,1.21,1a6.75,6.75,0,0,0,.89.62,6,6,0,0,0,7.34-1.38c1.47,1.28,3.58,1,5.25.21a10,10,0,0,0,1.53-1,2.6,2.6,0,0,1,1.46-.6c.35,0,.71,0,1.06,0a4.12,4.12,0,0,0,2.84-1.64C189.67,112,194.79,108.18,194.59,103.41ZM147.27,81.49a3.55,3.55,0,0,1,2.32-3.41c0,.11,0,.19,0,.19s-.39.3-.56.46A4.55,4.55,0,0,0,148,83.6c0,.05,0,.1.05.15A4.3,4.3,0,0,1,147.27,81.49Zm27.25-21A3.44,3.44,0,0,0,171,62.22l-.11,0c.49-1.39,1.33-2.52,3-2.46a3,3,0,0,1,2.52,1.6h0A3.71,3.71,0,0,0,174.52,60.47Zm11.24,48.05,0,0a6.21,6.21,0,0,0,8.09-3C192.59,108.77,189.53,110.9,185.76,108.52Z" style="fill: rgb(38, 50, 56); transform-origin: 174.805px 86.5872px;" id="el8n09m7m0rn" class="animable"></path><path d="M171.35,130.57c6.57,19.43,18.43,46.07,25,47.86,4,1.08,10.79,2.39,16.55-2C225.5,167,235,152.58,240.2,145.2c2.36-3.35-17.81-21.68-20.95-18.62-7.34,7.17-16.33,21.64-17.52,21.46-4.41-.66-9.77-12.16-19.38-23.34C170.78,111.23,168.54,122.27,171.35,130.57Z" style="fill: rgb(235, 148, 129); transform-origin: 205.324px 148.94px;" id="el96fi52xhje" class="animable"></path><path d="M232.4,151.72c7.66-2.24,18.23-6.07,20.1-9.2,2-3.29,8.39-15.13,9-18.36s-.5-13.14-2.33-15.44c-1.47-1.85-3.87-.1-4.17,5.45-.35,6.21-2.23,7.69-3,9.28s-7.42,6.81-10,6.07c-1.51-.44-4.22-2.06-3.45-4.78s2.67-4.5,4.18-9.16c1.17-3.63-.33-7.2-1.76-7.29s-1.66,2.37-5.22,6.74c-2.22,2.73-3.93,4.61-10.08,6.88-5.38,2-8.71,7.18-8.71,7.18Z" style="fill: rgb(235, 148, 129); transform-origin: 239.314px 129.865px;" id="el1uwuaniqn0h" class="animable"></path><path d="M257.08,135.26c.94-1.89,5.4-6.63,6.38-9.27s3.36-13.07,1.11-15.36c-2.82-2.88-6,4.85-7.13,8.33s-6.31,7.84-6.31,7.84l3.47,4.7Z" style="fill: rgb(235, 148, 129); transform-origin: 258.319px 122.63px;" id="elx1ll79h3s" class="animable"></path><path d="M249.72,127.67c1.39-1.38,2.76-2.77,4.07-4.18a27.27,27.27,0,0,0,1.85-2.2,10.75,10.75,0,0,0,1.35-2.45c.79-1.76,1.51-3.59,2.47-5.32a12.71,12.71,0,0,1,1.7-2.46,4.07,4.07,0,0,1,1.2-.93,1.62,1.62,0,0,1,1.47,0,1.62,1.62,0,0,0-1.34.25,4,4,0,0,0-1,1,16.35,16.35,0,0,0-1.37,2.5c-.79,1.76-1.47,3.57-2.25,5.38a12.15,12.15,0,0,1-1.52,2.62,21.1,21.1,0,0,1-2,2.17A34.32,34.32,0,0,1,249.72,127.67Z" style="fill: rgb(38, 50, 56); transform-origin: 256.775px 118.812px;" id="elx74zdkmfeyk" class="animable"></path><path d="M256,136.74c1.42-1.54,7-4.82,8.64-7.06s6.86-11.57,5.38-14.41c-1.86-3.57-7.08,2.92-9.09,6s-8.17,5.72-8.17,5.72l2,5.48Z" style="fill: rgb(235, 148, 129); transform-origin: 261.521px 125.483px;" id="elporywrwde8a" class="animable"></path><path d="M251.17,127.36c1.71-.93,3.39-1.86,5-2.85a24.1,24.1,0,0,0,2.35-1.58,10.44,10.44,0,0,0,2-2c1.23-1.46,2.43-3,3.82-4.38a12.9,12.9,0,0,1,2.29-1.87,4.43,4.43,0,0,1,1.41-.56,1.59,1.59,0,0,1,1.4.4,1.63,1.63,0,0,0-1.34-.14,4.1,4.1,0,0,0-1.19.7,15.13,15.13,0,0,0-2,2c-1.24,1.45-2.39,3-3.64,4.49a10.9,10.9,0,0,1-2.16,2.07,19.34,19.34,0,0,1-2.55,1.5A33.21,33.21,0,0,1,251.17,127.36Z" style="fill: rgb(38, 50, 56); transform-origin: 260.305px 120.725px;" id="el1yp70fs3c8e" class="animable"></path><path d="M249.3,132a10.76,10.76,0,0,1-4.92-.07,20.42,20.42,0,0,1-2.4-.68,22.15,22.15,0,0,1-2.26-1,20,20,0,0,0-4.42-1.72,22.26,22.26,0,0,0-4.79-.57,14.06,14.06,0,0,1,4.93-.17,15.53,15.53,0,0,1,4.72,1.57,24.84,24.84,0,0,0,4.42,1.8A16.4,16.4,0,0,0,249.3,132Z" style="fill: rgb(38, 50, 56); transform-origin: 239.905px 129.95px;" id="el7kpbbuth95k" class="animable"></path><path d="M268.09,113.5,242.68,136a2.54,2.54,0,0,1-2.66.41l-13.64-7.11c-.76-.4-.81-1.22-.11-1.85l25.42-22.46a2.54,2.54,0,0,1,2.65-.4L268,111.65C268.75,112.05,268.8,112.87,268.09,113.5Z" style="fill: rgb(55, 71, 79); transform-origin: 247.185px 120.5px;" id="el8448ebl87yj" class="animable"></path><path d="M267.3,111.29l-13.64-7.11a2.52,2.52,0,0,0-2.65.41l-25.42,22.46c-.7.62-.66,1.44.1,1.84L239.34,136a2.54,2.54,0,0,0,2.65-.4l25.42-22.46A1.05,1.05,0,0,0,267.3,111.29Zm-25.39,23.16a2.33,2.33,0,0,1-2.44.43l-12.21-6.36c-.68-.36-.69-1.13,0-1.72l23.67-20.91c1.37-1.21,2-1,2.67-.62l2.45,1.27c.14.08.11.27-.07.43l-.08.07c-.42.37-.17.51.15.67l5.65,3a.73.73,0,0,0,1-.08l.08-.07a.57.57,0,0,1,.58-.15l2.45,1.27c.68.36,1.05.81-.2,1.91Z" style="fill: rgb(38, 50, 56); transform-origin: 246.502px 120.09px;" id="el9ghcr5dv5x6" class="animable"></path><line x1="228.74" y1="125.48" x2="228.69" y2="125.45" style="fill: none; transform-origin: 228.715px 125.465px;" id="elhuufguys5mc" class="animable"></line><path d="M265.58,113.54l-23.67,20.91a2.33,2.33,0,0,1-2.44.43l-12.21-6.36c-.68-.36-.69-1.13,0-1.72l23.67-20.91c1.37-1.21,2-1,2.67-.62l2.45,1.27c.14.08.11.27-.07.43l-.08.07c-.42.37-.17.51.15.67l5.65,3a.73.73,0,0,0,1-.08l.08-.07a.57.57,0,0,1,.58-.15l2.45,1.27C266.46,112,266.83,112.44,265.58,113.54Z" style="fill: rgb(255, 255, 255); transform-origin: 246.577px 120.013px;" id="els5d395hf93" class="animable"></path><g id="freepik--u5zjqx--inject-2" class="animable" style="transform-origin: 254.805px 106.716px;"><path d="M255.06,106.79H255a.22.22,0,0,0-.14-.19.46.46,0,0,0-.31,0v0h.17a.53.53,0,0,1,.12,0h.05l0,0,0,0,.07.06,0,0a.14.14,0,0,1,0,.06v0Z" style="fill: rgb(199, 199, 199); transform-origin: 254.805px 106.682px;" id="elcfgz9nzpeuf" class="animable"></path><path d="M254.55,106.66v0a.4.4,0,0,1,.22,0,.22.22,0,0,1,.16.18h-.07a.15.15,0,0,0-.09-.13A.36.36,0,0,0,254.55,106.66Z" style="fill: rgb(199, 199, 199); transform-origin: 254.74px 106.742px;" id="elatpg0n86i1b" class="animable"></path><path d="M254.78,106.83h-.07a.07.07,0,0,0-.05-.06.2.2,0,0,0-.11,0v-.05C254.66,106.7,254.77,106.75,254.78,106.83Z" style="fill: rgb(199, 199, 199); transform-origin: 254.665px 106.773px;" id="elemz0l6cpleq" class="animable"></path><path d="M254.63,106.85a.06.06,0,0,1-.06,0s0,0,0,0a.06.06,0,0,1,.06,0S254.65,106.83,254.63,106.85Z" style="fill: rgb(199, 199, 199); transform-origin: 254.604px 106.85px;" id="elywwufq83dr8" class="animable"></path></g><path d="M252.7,105.65a.17.17,0,0,1,.18,0,.08.08,0,0,1,0,.13.19.19,0,0,1-.19,0A.07.07,0,0,1,252.7,105.65Z" style="fill: rgb(199, 199, 199); transform-origin: 252.782px 105.715px;" id="elf739w8jijv4" class="animable"></path><path d="M253,105.81a.19.19,0,0,1,.19,0,.08.08,0,0,1,0,.13.19.19,0,0,1-.19,0A.08.08,0,0,1,253,105.81Z" style="fill: rgb(199, 199, 199); transform-origin: 253.095px 105.875px;" id="elbyoj38x7fao" class="animable"></path><path d="M253.31,106a.17.17,0,0,1,.18,0,.07.07,0,0,1,0,.13.17.17,0,0,1-.18,0A.07.07,0,0,1,253.31,106Z" style="fill: rgb(199, 199, 199); transform-origin: 253.4px 106.065px;" id="elaaipvxufpaf" class="animable"></path><path d="M253.61,106.13a.19.19,0,0,1,.19,0,.08.08,0,0,1,0,.13.19.19,0,0,1-.19,0A.08.08,0,0,1,253.61,106.13Z" style="fill: rgb(199, 199, 199); transform-origin: 253.705px 106.195px;" id="elrmo7pkganp" class="animable"></path><path d="M253.92,106.29a.19.19,0,0,1,.19,0,.08.08,0,0,1,0,.13.19.19,0,0,1-.19,0A.08.08,0,0,1,253.92,106.29Z" style="fill: rgb(199, 199, 199); transform-origin: 254.015px 106.355px;" id="elj55rkhp5j8" class="animable"></path><path d="M265.12,112.4l-.79-.41.33-.3.79.42Zm-.71-.43.71.38.26-.23-.71-.37Z" style="fill: rgb(199, 199, 199); transform-origin: 264.89px 112.045px;" id="elj53x1k38pn" class="animable"></path><polygon points="265.18 112.04 264.67 111.78 264.45 111.97 264.96 112.24 265.18 112.04" style="fill: rgb(199, 199, 199); transform-origin: 264.815px 112.01px;" id="elb4rqh96fv29" class="animable"></polygon><polygon points="265.27 112.37 265.2 112.33 265.38 112.17 265.45 112.21 265.27 112.37" style="fill: rgb(199, 199, 199); transform-origin: 265.325px 112.27px;" id="el1acubl9zetci" class="animable"></polygon><path d="M260.14,109.12l-1.54-.81a.07.07,0,0,1,0-.12h0a.17.17,0,0,1,.18,0l1.55.81c.05,0,.05.08,0,.12h0A.19.19,0,0,1,260.14,109.12Z" style="fill: rgb(255, 255, 255); transform-origin: 259.467px 108.655px;" id="elw4kzjc37t89" class="animable"></path><path d="M256.43,114.82c.13,1.82-1.89,3.61-4.52,4s-4.85-.78-5-2.6,1.9-3.61,4.52-4S256.3,113,256.43,114.82Z" style="fill: rgb(69, 90, 100); transform-origin: 251.669px 115.52px;" id="elmc1is52v09o" class="animable"></path><path d="M255.51,117.51a6.79,6.79,0,0,1-1.62,1,7.66,7.66,0,0,1-1.95.56,7.07,7.07,0,0,1-2,0,5.45,5.45,0,0,1-1.74-.53,3.48,3.48,0,0,1-1.22-1,2.55,2.55,0,0,1-.5-1.32,2.84,2.84,0,0,1,.3-1.43,4.27,4.27,0,0,1,1-1.34,6.73,6.73,0,0,1,1.64-1,7.8,7.8,0,0,1,2-.56,7.52,7.52,0,0,1,2,0,5.4,5.4,0,0,1,1.73.54,3.51,3.51,0,0,1,1.2,1,2.51,2.51,0,0,1,.49,1.32,2.84,2.84,0,0,1-.3,1.43A4.39,4.39,0,0,1,255.51,117.51Zm0,0a4.35,4.35,0,0,0,1-1.32,2.94,2.94,0,0,0,.29-1.43,2.55,2.55,0,0,0-.5-1.3,3.38,3.38,0,0,0-1.2-1,5.41,5.41,0,0,0-1.72-.53,7.38,7.38,0,0,0-2,0,7.59,7.59,0,0,0-1.94.56,6.34,6.34,0,0,0-1.6,1,4.2,4.2,0,0,0-1,1.31,2.77,2.77,0,0,0-.3,1.41,2.54,2.54,0,0,0,.49,1.31,3.36,3.36,0,0,0,1.19,1,5.1,5.1,0,0,0,1.72.54,7.3,7.3,0,0,0,2,0,7.62,7.62,0,0,0,2-.56A6.46,6.46,0,0,0,255.51,117.51Z" style="fill: rgb(69, 90, 100); transform-origin: 251.66px 115.482px;" id="elpowvqc4np4k" class="animable"></path><path d="M248,112.7a8.6,8.6,0,0,1,2.05-1,9,9,0,0,1,2.3-.4,7.19,7.19,0,0,1,2.2.24,5.15,5.15,0,0,1,1.78.84,3.49,3.49,0,0,1,1.07,1.31,2.79,2.79,0,0,1,.2,1.59,3.79,3.79,0,0,1-.69,1.63,5.77,5.77,0,0,1-1.49,1.41,7.81,7.81,0,0,1-2.06,1,8.75,8.75,0,0,1-2.31.4,7.53,7.53,0,0,1-2.21-.25,5.3,5.3,0,0,1-1.77-.85A3.32,3.32,0,0,1,246,117.3a2.84,2.84,0,0,1-.19-1.58,3.66,3.66,0,0,1,.7-1.62A6,6,0,0,1,248,112.7Zm0,0a6,6,0,0,0-1.47,1.4,3.76,3.76,0,0,0-.69,1.62,2.9,2.9,0,0,0,.2,1.57,3.41,3.41,0,0,0,1.07,1.31,5.13,5.13,0,0,0,1.76.83,7.72,7.72,0,0,0,2.18.24,9,9,0,0,0,2.29-.4,7.7,7.7,0,0,0,2-1,5.79,5.79,0,0,0,1.48-1.38,3.69,3.69,0,0,0,.69-1.6,2.82,2.82,0,0,0-.19-1.58,3.34,3.34,0,0,0-1.05-1.31,5.33,5.33,0,0,0-1.76-.84,7.4,7.4,0,0,0-2.19-.24,8.59,8.59,0,0,0-2.29.39A8.21,8.21,0,0,0,248,112.7Z" style="fill: rgb(69, 90, 100); transform-origin: 251.705px 115.509px;" id="elw3zbhmxywam" class="animable"></path><path d="M251.69,116.46l-1.37-.71,1.9-1.67a1.24,1.24,0,0,1,1.3-.19h0a.51.51,0,0,1,.07.9Z" style="fill: rgb(255, 255, 255); transform-origin: 252.074px 115.123px;" id="elsj61cx81ug" class="animable"></path><path d="M249.84,117.15a.06.06,0,0,1,0-.11l.88-.78a.14.14,0,0,1,.16,0s0,.07,0,.11l-.87.77A.16.16,0,0,1,249.84,117.15Z" style="fill: rgb(255, 255, 255); transform-origin: 250.342px 116.702px;" id="elio0pfy5z8md" class="animable"></path><path d="M251.83,116.84a.16.16,0,0,1-.16,0l-1.91-1s0-.07,0-.11a.14.14,0,0,1,.16,0l1.91,1A.07.07,0,0,1,251.83,116.84Z" style="fill: rgb(255, 255, 255); transform-origin: 250.808px 116.283px;" id="elfnbfn5n7oli" class="animable"></path><path d="M250.92,114.84a.07.07,0,0,1,0,.11l-1,.9a.16.16,0,0,1-.15,0s0-.07,0-.11l1-.89A.16.16,0,0,1,250.92,114.84Z" style="fill: rgb(255, 255, 255); transform-origin: 250.358px 115.347px;" id="elwcaw3s5lomi" class="animable"></path><path d="M252.83,115.84s0,.07,0,.11l-1,.89a.16.16,0,0,1-.16,0,.06.06,0,0,1,0-.11l1-.9A.18.18,0,0,1,252.83,115.84Z" style="fill: rgb(255, 255, 255); transform-origin: 252.232px 116.339px;" id="elvr0enm9e3l" class="animable"></path><path d="M250.37,117.42l-1.07-.55s-.05-.08,0-.11a.14.14,0,0,1,.15,0l1.07.56s0,.07,0,.11A.16.16,0,0,1,250.37,117.42Z" style="fill: rgb(255, 255, 255); transform-origin: 249.899px 117.091px;" id="elxzafwqy0cz" class="animable"></path><g id="elv8r6nbdkrre"><path d="M249.16,127.68h0a13.18,13.18,0,0,0-2.13-.91c-1.83-.31-2.79.56-3.28.31s.36-1.88-.3-2.22-1.34,0-1.79-.22,0-.74-1.08-1.28-2.25.17-2.84-.14-.21-1.53-.94-1.9-1.79-1-1.79-1h0s1.18.53,1.9.91,2.35-.18,3,.13-.09,1.29.94,1.82,1.64.15,2.09.38.12.78.78,1.12,2.85-.57,3.23-.38-.51,1.11.41,2.23A10.62,10.62,0,0,0,249.16,127.68Z" style="fill: #195DF8; opacity: 0.4; transform-origin: 242.085px 124px;" class="animable" id="elfi2go8y4n2m"></path></g><g id="elvee4bblnlgc"><path d="M249.16,127.68h0c-1-.53-3.11,1-4,.52-.61-.32.26-2-.53-2.38s-1.45.15-1.92-.09.2-1.2-.54-1.58-3.16,1.28-3.91.89.86-2.28.16-2.65-1.08-.11-1.68-.43-.69-1-1.31-1.34c-.44-.23-.46-.31-.46-.31h0a1.43,1.43,0,0,1,.57.22c.62.32,1.64.2,2.24.51s.34.62,1.05,1,3-1.18,3.73-.79-1.13,2.35-.26,2.8,1.9-.3,2.38-.05-.13.84.62,1.23,2.91-.58,3.53-.26C249.72,125.4,248.13,127.15,249.16,127.68Z" style="fill: #195DF8; opacity: 0.6; transform-origin: 242.065px 124.302px;" class="animable" id="elvt9vshu9bzo"></path></g><path d="M235,120.31a1.89,1.89,0,0,0,.6.16,3,3,0,0,0,.67,0c.23,0,.46-.07.69-.1a4.14,4.14,0,0,1,.7-.06,1.31,1.31,0,0,1,.61.16.78.78,0,0,1,.31.4c.12.31.16.62.29.91a1.09,1.09,0,0,0,.27.4,1.43,1.43,0,0,0,.49.26,1.86,1.86,0,0,0,.63,0l.35,0a1.34,1.34,0,0,1,.35,0,.68.68,0,0,1,.26.16.48.48,0,0,1,.12.22c.06.15.08.31.13.46a.77.77,0,0,0,.26.39,1,1,0,0,0,.5.23,2,2,0,0,0,.65,0c.23,0,.45-.09.68-.14s.46-.09.7-.11a1.15,1.15,0,0,1,.65.12.61.61,0,0,1,.31.42,1.55,1.55,0,0,1,0,.48,1.93,1.93,0,0,0,0,.48.45.45,0,0,0,0,.11.47.47,0,0,0,.05.1l.09.09.1.07a1.56,1.56,0,0,0,.58.16,5,5,0,0,0,.67,0,2,2,0,0,1,.66.1,1,1,0,0,1,.43.34c.19.27.26.59.43.87a1,1,0,0,0,.37.35l.5.28-.51-.27a1,1,0,0,1-.39-.35c-.18-.28-.26-.59-.46-.86a.93.93,0,0,0-.41-.31,1.85,1.85,0,0,0-.63-.09c-.22,0-.46,0-.68,0a1.72,1.72,0,0,1-.62-.16l-.12-.08-.1-.1-.06-.11s0-.08,0-.12a2,2,0,0,1,0-.49,1.48,1.48,0,0,0,0-.47.53.53,0,0,0-.27-.37,1,1,0,0,0-.59-.11c-.22,0-.45.07-.67.11s-.46.11-.69.14a2.12,2.12,0,0,1-.71,0,1,1,0,0,1-.83-.68c-.05-.15-.07-.31-.12-.46a.49.49,0,0,0-.11-.2.54.54,0,0,0-.22-.13,1.73,1.73,0,0,0-.65,0,1.85,1.85,0,0,1-.67-.06,1.18,1.18,0,0,1-.52-.28,1,1,0,0,1-.28-.42c-.13-.3-.16-.62-.27-.91a.79.79,0,0,0-.29-.39,1.27,1.27,0,0,0-.58-.16,4,4,0,0,0-.68,0c-.23,0-.45.07-.69.09a2.59,2.59,0,0,1-.68,0A1.77,1.77,0,0,1,235,120.31Z" style="fill: #195DF8; transform-origin: 242.05px 123.948px;" id="elxlmw59nobd" class="animable"></path><path d="M249.14,127.68l-.51-.27a1.88,1.88,0,0,0-.61-.15c-.44,0-.9,0-1.34-.06a1.37,1.37,0,0,1-.59-.19,1,1,0,0,1-.32-.4,2.44,2.44,0,0,0-.19-.44,1.15,1.15,0,0,0-.38-.34l-.14,0-.14,0h-.32a5.39,5.39,0,0,0-.68.12,5.58,5.58,0,0,1-.69.13,1.22,1.22,0,0,1-.67-.1.57.57,0,0,1-.35-.4,1.55,1.55,0,0,1,0-.48,4,4,0,0,0,0-.48.73.73,0,0,0-.16-.43.84.84,0,0,0-.45-.27,1.85,1.85,0,0,0-.63-.07c-.22,0-.45,0-.69,0l-.35,0a.61.61,0,0,1-.28-.13.46.46,0,0,1-.15-.22c0-.08,0-.16-.06-.23a.7.7,0,0,0-.24-.4,1.43,1.43,0,0,0-.49-.26,2.62,2.62,0,0,0-.64-.07c-.44,0-.91,0-1.37,0a1.56,1.56,0,0,1-.65-.1.77.77,0,0,1-.39-.36,1.27,1.27,0,0,1-.09-.47c0-.16,0-.32,0-.48a1.26,1.26,0,0,0-.15-.45,1.18,1.18,0,0,0-.39-.34,1,1,0,0,1,.4.34,1.23,1.23,0,0,1,.17.45c0,.16,0,.32,0,.47a1.41,1.41,0,0,0,.11.46.77.77,0,0,0,.37.34,1.81,1.81,0,0,0,.63.09c.45,0,.91-.06,1.37-.06a2.93,2.93,0,0,1,.67.07,1.56,1.56,0,0,1,.53.27.85.85,0,0,1,.26.43c0,.16.05.32.19.42a.59.59,0,0,0,.24.11,1.13,1.13,0,0,0,.32,0c.22,0,.45,0,.68,0a1.48,1.48,0,0,1,1.18.38.73.73,0,0,1,.17.46,4,4,0,0,1,0,.49,1.23,1.23,0,0,0,0,.47.51.51,0,0,0,.3.36,1.16,1.16,0,0,0,.6.08,5.24,5.24,0,0,0,.67-.12c.23,0,.46-.1.7-.13H245l.17,0a.84.84,0,0,1,.14.06,1.08,1.08,0,0,1,.4.36,2.78,2.78,0,0,1,.19.44.79.79,0,0,0,.29.39,1.38,1.38,0,0,0,.56.19c.43.06.89,0,1.33.08a1.88,1.88,0,0,1,.61.16Z" style="fill: #195DF8; transform-origin: 242.085px 124.01px;" id="el70ojcoc8w08" class="animable"></path><polygon points="238.58 130.61 233.57 128 235 126.74 240 129.35 238.58 130.61" style="fill: #195DF8; transform-origin: 236.785px 128.675px;" id="elnbjwhsgpmvj" class="animable"></polygon><path d="M235.52,128a.44.44,0,0,1,.45-.06.21.21,0,0,1,.11.12s0,0-.05,0-.05,0-.05,0a.15.15,0,0,0-.08-.08.27.27,0,0,0-.16,0,.27.27,0,0,0-.14.07.14.14,0,0,0-.06.11.14.14,0,0,0,.07.1.35.35,0,0,0,.14,0s.05,0,.05,0a.07.07,0,0,1-.06,0,.41.41,0,0,1-.19,0A.18.18,0,0,1,235.52,128Z" style="fill: rgb(255, 255, 255); transform-origin: 235.779px 128.087px;" id="elxrak8gyz4xi" class="animable"></path><path d="M236.15,128.48l-.16-.08-.11,0h-.06a0,0,0,0,1,0-.05l.49-.23h0s0,0,0,0l-.21.38a.06.06,0,0,1-.06,0h0s0,0,0,0Zm0-.07.07-.14-.18.08Z" style="fill: rgb(255, 255, 255); transform-origin: 236.065px 128.314px;" id="el11zbsnx0f0rn" class="animable"></path><path d="M236.34,128.67s0,0-.06,0,0,0,0-.05l.34-.3h0l0,0a0,0,0,0,1,0,0l0,.34.24-.22a.06.06,0,0,1,.06,0s0,0,0,0l-.34.3a.06.06,0,0,1-.07,0l0,0h0l.06-.34Z" style="fill: rgb(255, 255, 255); transform-origin: 236.587px 128.536px;" id="elde8wg2ih4un" class="animable"></path><path d="M236.93,128.72a.44.44,0,0,1,.45-.06.21.21,0,0,1,.11.12s0,0-.05.05-.05,0-.05,0a.15.15,0,0,0-.08-.08.27.27,0,0,0-.16,0,.35.35,0,0,0-.14.06.17.17,0,0,0-.06.12.15.15,0,0,0,.08.1.19.19,0,0,0,.13,0,0,0,0,0,1,.05,0,.09.09,0,0,1-.06,0,.31.31,0,0,1-.19,0A.19.19,0,0,1,236.93,128.72Z" style="fill: rgb(255, 255, 255); transform-origin: 237.177px 128.834px;" id="elz8tf6y9t7x" class="animable"></path><path d="M237.27,129.15l.35-.3a.06.06,0,0,1,.07,0h0l.21.11s0,0,0,.05a.09.09,0,0,1-.07,0l-.17-.1-.11.1.15.08s0,0,0,0a.09.09,0,0,1-.07,0l-.15-.08-.11.09.17.09a0,0,0,0,1,0,.05.06.06,0,0,1-.07,0l-.21-.11h0S237.26,129.17,237.27,129.15Z" style="fill: rgb(255, 255, 255); transform-origin: 237.58px 129.045px;" id="el4j4pyhk35pa" class="animable"></path><path d="M237.66,129.35l.34-.3a.06.06,0,0,1,.07,0s0,0,0,.05l-.32.27.18.1s0,0,0,0a.06.06,0,0,1-.07,0l-.21-.11h0S237.64,129.37,237.66,129.35Z" style="fill: rgb(255, 255, 255); transform-origin: 237.859px 129.26px;" id="elq4cdsz8k2kn" class="animable"></path><path d="M244.08,120.36l-.27-.14-.2.18h0s0,0,0,0L244,120h0s0,0,0,0l-.2.18.27.14.2-.18s0,0,0,0,0,0,0,0l-.44.39h0s0,0,0,0Z" style="fill: rgb(55, 71, 79); transform-origin: 243.94px 120.265px;" id="elm2zcunkt7xe" class="animable"></path><path d="M244.21,120.51a.33.33,0,0,1,.34-.06.14.14,0,0,1,0,.23h0l-.3-.16c-.07.07-.06.15,0,.19a.25.25,0,0,0,.17,0s0,0,0,0,0,0,0,0a.24.24,0,0,1-.22,0C244.13,120.69,244.12,120.59,244.21,120.51Zm.06,0,.28.15a.1.1,0,0,0,0-.17A.32.32,0,0,0,244.27,120.5Z" style="fill: rgb(55, 71, 79); transform-origin: 244.378px 120.582px;" id="el7n4e62dfohx" class="animable"></path><path d="M245.14,120.78l-.3.27s0,0,0,0,0,0,0,0l.05,0a.27.27,0,0,1-.2,0c-.1,0-.1-.16,0-.24a.35.35,0,0,1,.34,0,.15.15,0,0,1,.07.13l.05,0s0,0,0,0S245.15,120.77,245.14,120.78Zm-.18.12c.07-.07.07-.15,0-.19a.27.27,0,0,0-.27,0c-.07.07-.07.15,0,.19A.27.27,0,0,0,245,120.9Z" style="fill: rgb(55, 71, 79); transform-origin: 244.882px 120.872px;" id="el2fju4d341dh" class="animable"></path><path d="M245.29,120.86s0,0,0,0,0,0,0,0l-.07.07h0a.31.31,0,0,1,.23,0s0,0,0,0h0a.19.19,0,0,0-.15,0,.31.31,0,0,0-.12,0h0l-.15.12s0,0,0,0,0,0,0,0Z" style="fill: rgb(55, 71, 79); transform-origin: 245.24px 120.955px;" id="elo8toxwj2ye" class="animable"></path><path d="M245.73,120.94h0a0,0,0,0,1,0,0h-.06a0,0,0,0,1,0,0Zm-.11.09s0,0,0,0,0,0,0,0l-.3.26h0s0,0,0,0Z" style="fill: rgb(55, 71, 79); transform-origin: 245.525px 121.115px;" id="elzzli2aad35" class="animable"></path><path d="M246,121.38a.09.09,0,0,0,0-.15.23.23,0,0,0-.21,0l-.18.16h0s0,0,0,0h0l.18-.15h0l.11-.1a0,0,0,0,1,0,0s0,0,0,0l0,0a.21.21,0,0,1,.16,0,.11.11,0,0,1,0,.19l-.18.16h0s0,0,0,0Z" style="fill: rgb(55, 71, 79); transform-origin: 245.862px 121.307px;" id="el4yl9xtrzaj4" class="animable"></path><path d="M246.31,121.8a.31.31,0,0,1-.32,0,.1.1,0,0,1-.06,0s0,0,0,0h0s0,0,.05,0a.25.25,0,0,0,.26,0l0,0a.27.27,0,0,1-.2,0c-.1,0-.1-.15,0-.23a.33.33,0,0,1,.34-.06.13.13,0,0,1,.07.13l0,0s0,0,0,0,0,0,0,0Zm.11-.14c.07-.07.07-.15,0-.19a.25.25,0,0,0-.26,0c-.08.07-.07.15,0,.19A.27.27,0,0,0,246.42,121.66Z" style="fill: rgb(55, 71, 79); transform-origin: 246.201px 121.639px;" id="elfc5nucbj5ge" class="animable"></path><path d="M246.56,121.87a0,0,0,0,1,0,0,.07.07,0,0,1-.07,0s0,0,0-.05S246.54,121.86,246.56,121.87Z" style="fill: rgb(55, 71, 79); transform-origin: 246.525px 121.842px;" id="el9wa5sleujb" class="animable"></path><path d="M246.73,122s0,0,0,0a.06.06,0,0,1-.07,0,0,0,0,0,1,0,0A.06.06,0,0,1,246.73,122Z" style="fill: rgb(55, 71, 79); transform-origin: 246.695px 122px;" id="eluvi4wks2i8" class="animable"></path><path d="M246.9,122a0,0,0,0,1,0,0,.06.06,0,0,1-.07,0s0,0,0,0A.09.09,0,0,1,246.9,122Z" style="fill: rgb(55, 71, 79); transform-origin: 246.865px 122.002px;" id="elcyp5c5xpoe" class="animable"></path><path d="M250.51,144.29c1.69-1.15,7.93-5.92,9.64-8.48s6.89-13.15,5.09-16.26c-2.26-3.91-7.63,3.52-9.67,7s-7.27,5.29-7.27,5.29l2.36,7.29Z" style="fill: rgb(235, 148, 129); transform-origin: 256.957px 131.366px;" id="elcpczwsp076f" class="animable"></path><path d="M259.21,121.37c-.61,1.17-1.36,2.3-2.08,3.41A25.85,25.85,0,0,1,255,127.9a11.17,11.17,0,0,1-3,2.24c-.54.3-1.09.56-1.65.81s-1.25.48-1.86.76c-.06,0-.12-.07-.05-.1a28.81,28.81,0,0,0,3.14-1.9,14.7,14.7,0,0,0,2.87-2.47c1.68-1.87,3-4.09,4.61-6C259.14,121.18,259.25,121.28,259.21,121.37Z" style="fill: rgb(38, 50, 56); transform-origin: 253.813px 126.466px;" id="el4ccd5flj0tj" class="animable"></path><path d="M255,127.9l1.51-3c.54-1,1.11-1.92,1.73-2.85a16.1,16.1,0,0,1,2.14-2.63,7,7,0,0,1,1.39-1.07,3.22,3.22,0,0,1,1.86-.49,2.35,2.35,0,0,1,1.74,1,3.75,3.75,0,0,1,.54,1.8,10.71,10.71,0,0,1-.41,3.41,27.15,27.15,0,0,1-2.47,6.18c.34-1.06.69-2.1,1-3.16a27.86,27.86,0,0,0,.76-3.19,12.14,12.14,0,0,0,.22-3.16,2.9,2.9,0,0,0-.41-1.33,1.35,1.35,0,0,0-1-.58,3.78,3.78,0,0,0-2.52,1.25,20.53,20.53,0,0,0-2.16,2.39C257.46,124.25,256.31,126.13,255,127.9Z" style="fill: rgb(38, 50, 56); transform-origin: 260.46px 124.053px;" id="elmexohq3uhis" class="animable"></path><path d="M213.28,132.27l22.47,23.13S220.36,174,210.81,178.71c-4.51,2.21-13.05,1.27-15.78-.11-2.54-1.29-15.81-17.84-24-45.88-6.36-21.79,6.89-15.15,11.47-9.17,4.94,6.44,18,23,18.85,22.84S213.28,132.27,213.28,132.27Z" style="fill: rgb(38, 50, 56); transform-origin: 202.542px 148.864px;" id="elemv8pxcaxmg" class="animable"></path><path d="M209.25,139.3c3.4,3.32,6.7,6.74,10,10.18,1.61,1.69,7.73,8.63,9.5,10.59.07.08-.14.26-.21.19-1.77-1.7-8.3-8.57-9.88-10.28-3.21-3.49-6.4-7-9.49-10.6A.06.06,0,0,1,209.25,139.3Z" style="fill: rgb(55, 71, 79); transform-origin: 218.964px 149.785px;" id="elb5xgnlnlrrk" class="animable"></path><path d="M208.14,179.59c-4.63,1-10.85.15-13.1-1-2.55-1.29-15.82-17.84-24-45.88-3.49-12-1.08-15.35,2.57-15C178.05,125.65,196.54,158.68,208.14,179.59Z" style="fill: rgb(55, 71, 79); transform-origin: 188.742px 148.859px;" id="elfiazjpxxqhw" class="animable"></path><path d="M128.07,201.05l66.59,1.38c1-1-9.75-72.74-16.81-83.16-1.51-2.23-10.68-6.06-17.86-1.18C146.47,127.29,127.49,200.31,128.07,201.05Z" style="fill: rgb(235, 235, 235); transform-origin: 161.391px 159.077px;" id="elve52r9zbaks" class="animable"></path><path d="M179.18,121.73a0,0,0,0,0-.05,0c0,2.75-.23,9.12-5.18,8.46a11,11,0,0,1-5.19-2.59,25.83,25.83,0,0,1-4-3.93,34.9,34.9,0,0,1-3.58-5c0-.07-.18,0-.13.07a56.7,56.7,0,0,0,3.17,5.19,22.19,22.19,0,0,0,4.26,4.35,11.2,11.2,0,0,0,5.54,2.55,4.08,4.08,0,0,0,4.28-2.39A13.41,13.41,0,0,0,179.18,121.73Z" style="fill: rgb(38, 50, 56); transform-origin: 170.163px 124.754px;" id="el0qb5zyxy43n" class="animable"></path><path d="M162.15,116s3.32,25.18,3.87,33.84-5.56,78.39-5.56,78.39l-38.3,4s10-51.74,10.23-53.65c0,0,9.7-37.33,18.71-51.74C157.74,116.2,162.15,116,162.15,116Z" style="fill: rgb(38, 50, 56); transform-origin: 144.107px 174.115px;" id="elh4x6hzwl3fn" class="animable"></path><path d="M177.12,118s4.27,26.52,4.65,29.32,4.12,81.2,4.12,81.2l13.67,3.32-5-52.2S183.94,122.71,177.12,118Z" style="fill: rgb(38, 50, 56); transform-origin: 188.34px 174.92px;" id="elavohywb57e" class="animable"></path><path d="M150.66,123.87c-12.85,13.26-28.16,34.57-31,44-2,6.58,6,37.28,9.27,45.07,1.4,3.36,27.38-4.41,26.92-8.27-.56-4.64-11.27-33.92-10.4-34.79s10.61-24.69,15.08-39.62C165.41,113.86,155.7,118.67,150.66,123.87Z" style="fill: rgb(235, 148, 129); transform-origin: 140.604px 166.358px;" id="el9hryoedpb7d" class="animable"></path><path d="M126.33,211.82l31.23-12.92s-10.73-25.05-10.62-27c.17-3.12,10.23-27,14.14-38.1s2.13-25.17-13-9-29.06,37.8-30.88,44.45C115.93,174,126.33,211.82,126.33,211.82Z" style="fill: rgb(38, 50, 56); transform-origin: 139.976px 164.648px;" id="elqtqvlhhk3nb" class="animable"></path><path d="M125.66,203.19c1.07-.63,5.47-2.45,6.5-2.89,2.25-1,4.48-1.93,6.73-2.88s4.48-1.9,6.74-2.82,4.46-1.91,6.74-2.71c.09,0,.14.11.06.15-2.09,1.23-17.56,8-19.84,8.9-1.09.42-5.67,2.13-6.88,2.37C125.65,203.32,125.6,203.23,125.66,203.19Z" style="fill: rgb(55, 71, 79); transform-origin: 139.052px 197.6px;" id="elo13tm9w9z3o" class="animable"></path><path d="M153.88,200.43l3.63-1.65-.07.17c-2.14-4.62-4.14-9.29-6.14-14-1-2.35-1.93-4.71-2.85-7.08-.47-1.19-.93-2.38-1.35-3.59-.11-.3-.21-.6-.31-.92a7.24,7.24,0,0,1-.27-1,2.26,2.26,0,0,1-.06-.57l.1-.55c.08-.36.19-.64.28-1,.79-2.45,1.69-4.82,2.58-7.21s1.81-4.75,2.77-7.11c1.89-4.73,3.82-9.43,5.87-14.09-1.69,4.8-3.44,9.57-5.19,14.35s-3.58,9.54-5.09,14.35c-.08.29-.2.61-.25.88l-.08.38a1.15,1.15,0,0,0,.06.37A14,14,0,0,0,148,174c.4,1.2.84,2.39,1.29,3.57.89,2.38,1.83,4.74,2.77,7.1l5.59,14.2,0,.13-.12,0Z" style="fill: rgb(55, 71, 79); transform-origin: 152.26px 171.13px;" id="elgv0i616e57c" class="animable"></path><path d="M155.76,147.76c.52-.69,1-1.36,1.42-2s.87-1.41,1.36-2.12a5.32,5.32,0,0,1-.35,1.24,6.58,6.58,0,0,1-.59,1.15,6.45,6.45,0,0,1-.81,1A3.74,3.74,0,0,1,155.76,147.76Z" style="fill: rgb(55, 71, 79); transform-origin: 157.15px 145.7px;" id="elusvbvdytraf" class="animable"></path><path d="M127.93,213.74a13.76,13.76,0,0,0,4.2.06,32.41,32.41,0,0,0,4.15-.71,71.14,71.14,0,0,0,8.06-2.43,79,79,0,0,0,7.78-3.22,27.24,27.24,0,0,0,3.65-2.07,12.85,12.85,0,0,0,1.65-1.29,4.66,4.66,0,0,0,1.27-1.65,4.51,4.51,0,0,1-1.07,1.84,14.63,14.63,0,0,1-1.56,1.49,25.74,25.74,0,0,1-3.58,2.36,51.93,51.93,0,0,1-7.81,3.48,49.52,49.52,0,0,1-8.25,2.24,28.88,28.88,0,0,1-4.26.44A12.07,12.07,0,0,1,127.93,213.74Z" style="fill: rgb(55, 71, 79); transform-origin: 143.31px 208.363px;" id="elni53mzkw4z" class="animable"></path><path d="M174,127.61c-3.58.16-10-5.24-11.48-10.6-.1-.37,1.19-3.7,2.57-7.82.83-2.5,1.69-5.31,2.29-7.93.12-.54,15.5,7.76,15.5,7.76a43,43,0,0,0-3.89,9.69,5.32,5.32,0,0,0-.13,1.1s0,.11,0,.18C178.73,122.11,177.87,127.44,174,127.61Z" style="fill: rgb(235, 148, 129); transform-origin: 172.697px 114.424px;" id="elhmhngbz0gvg" class="animable"></path><path d="M178.89,119.81s0,.12,0,.18a11.51,11.51,0,0,1-1.7-.3c-9.62-2.43-9.39-15.11-9.18-18.29,2.82,1.09,14.92,7.62,14.92,7.62a43,43,0,0,0-3.89,9.69A5.4,5.4,0,0,0,178.89,119.81Z" style="fill: rgb(38, 50, 56); transform-origin: 175.439px 110.695px;" id="elny8z286b31r" class="animable"></path><path d="M169,80.18c-2.94,5.51-3.17,23,.26,27.65,5,6.65,14.76,9.12,20.84,2.77,5.88-6.16,5.78-29,1.79-33.37C186.07,70.83,173.38,72,169,80.18Z" style="fill: rgb(235, 148, 129); transform-origin: 180.732px 93.706px;" id="elsoc2m6zbdj" class="animable"></path><path d="M183.56,93.56s-.09,0-.09.1c0,1.18-.16,2.54-1.24,2.91,0,0,0,.07,0,.07C183.55,96.48,183.77,94.68,183.56,93.56Z" style="fill: rgb(38, 50, 56); transform-origin: 182.93px 95.1px;" id="elbwjmuwmfnvr" class="animable"></path><path d="M182.53,92.31c-1.9-.18-2.11,3.63-.35,3.79S184.12,92.46,182.53,92.31Z" style="fill: rgb(38, 50, 56); transform-origin: 182.297px 94.2044px;" id="elq4hus2lebxj" class="animable"></path><path d="M190.38,94.14s.09.06.09.11c-.11,1.18,0,2.54,1,3,0,0,0,.07,0,.06C190.18,97.05,190.09,95.24,190.38,94.14Z" style="fill: rgb(38, 50, 56); transform-origin: 190.857px 95.7255px;" id="elwbnuyrm80uf" class="animable"></path><path d="M191.51,93c1.9,0,1.83,3.78.07,3.81S189.91,93,191.51,93Z" style="fill: rgb(38, 50, 56); transform-origin: 191.601px 94.9051px;" id="elcsvdvhxsbd" class="animable"></path><path d="M181.13,90.48a13.5,13.5,0,0,0,1.5-.44,2.52,2.52,0,0,0,1.45-.73.8.8,0,0,0-.07-1,2,2,0,0,0-2-.32,3,3,0,0,0-1.77,1.17A.86.86,0,0,0,181.13,90.48Z" style="fill: rgb(38, 50, 56); transform-origin: 182.159px 89.1755px;" id="elbuh36935gb" class="animable"></path><path d="M193.09,91.14a14.39,14.39,0,0,1-1.49-.48,2.56,2.56,0,0,1-1.43-.78.8.8,0,0,1,.1-1,2,2,0,0,1,2-.26A2.92,2.92,0,0,1,194,89.86.86.86,0,0,1,193.09,91.14Z" style="fill: rgb(38, 50, 56); transform-origin: 192.079px 89.8098px;" id="el0o1sd2zivgl" class="animable"></path><path d="M181.85,104.45c.27.29.53.68,1,.74a3.19,3.19,0,0,0,1.29-.22,0,0,0,0,1,0,.06,1.6,1.6,0,0,1-1.54.56,1.28,1.28,0,0,1-.87-1.1C181.72,104.42,181.81,104.4,181.85,104.45Z" style="fill: rgb(38, 50, 56); transform-origin: 182.935px 105.02px;" id="el1iarn2tjg5k" class="animable"></path><path d="M183.29,101a4,4,0,0,0,2.58,1.94,4.65,4.65,0,0,0,1.44.15,1.29,1.29,0,0,0,.28,0l.26,0a.29.29,0,0,0,.25-.25h0a.48.48,0,0,0,0-.12h0v-.1c.08-.91.07-2.29.07-2.29.32.18,2,1,2,.56a60,60,0,0,0-.87-12.24.11.11,0,0,0-.21,0c-.14,3.78.39,7.57.31,11.38a6.65,6.65,0,0,0-1.87-.68c-.13,0,.07,2.67,0,3.08a.1.1,0,0,1,0,0,5.57,5.57,0,0,1-4.08-1.53C183.32,100.81,183.23,100.89,183.29,101Z" style="fill: rgb(38, 50, 56); transform-origin: 186.735px 95.8352px;" id="elevnso6txsuv" class="animable"></path><path d="M186.8,102.58a4.73,4.73,0,0,1-2,1.37,2.17,2.17,0,0,1-1.31,0c-.92-.3-.9-1.17-.68-1.9a5.09,5.09,0,0,1,.48-1.11A6.15,6.15,0,0,0,186.8,102.58Z" style="fill: rgb(38, 50, 56); transform-origin: 184.742px 102.496px;" id="elyltg5wx1iz" class="animable"></path><path d="M184.81,104a2.17,2.17,0,0,1-1.31,0c-.92-.3-.9-1.17-.68-1.9A2.22,2.22,0,0,1,184.81,104Z" style="fill: rgb(255, 155, 188); transform-origin: 183.752px 103.101px;" id="elpjyurynjv8" class="animable"></path><path d="M195,84.08A3,3,0,0,0,194,82.21a7.56,7.56,0,0,0-1.25-4.07,5.94,5.94,0,0,0-3.2-2.88,8.92,8.92,0,0,0-4.7-2.69,11.81,11.81,0,0,0-3.88-.19c-.86.28-1.72-.23-2.59-.32a6,6,0,0,0-2.41.27,6.28,6.28,0,0,0-1.81,1,10.29,10.29,0,0,0-.92.83,2.74,2.74,0,0,1-1.56.76,5,5,0,0,0-3.28,2.47,6.57,6.57,0,0,0-.78,2.52c-.13,1.1-1.33,1.53-1.84,2.45a4.16,4.16,0,0,0,.43,4.59A4.49,4.49,0,0,0,164.55,92a4.35,4.35,0,0,0,2.94,2.63,3.57,3.57,0,0,0,.7.17c2.56.63,5.34-2,4.63-5.18v0a7.05,7.05,0,0,0,3.74-2.25,7.63,7.63,0,0,0,1.68-4.58,5.56,5.56,0,0,0,8.66-3.51c.85,1.09,3.38,3,4.63,2.73.25,3.79,2.6,5.37,3.26,5.4A4.83,4.83,0,0,0,195,84.08Zm-24.13,9.8c.81-.72,1.46-1.79,1.91-4.11A4.21,4.21,0,0,1,170.88,93.88ZM182,83.22a6.51,6.51,0,0,0,4.57-3.9A5.16,5.16,0,0,1,182,83.22Z" style="fill: rgb(38, 50, 56); transform-origin: 179.765px 83.4643px;" id="el196e3gjbpa2" class="animable"></path><path d="M170.57,95s-2.88-6.17-5.61-5.23-1.24,9.4,1.49,11a3,3,0,0,0,4.27-.9Z" style="fill: rgb(235, 148, 129); transform-origin: 167.116px 95.4889px;" id="elgs59ge9m2ad" class="animable"></path><path d="M165.45,92.19a0,0,0,0,0,0,.08c1.91,1.19,2.65,3.29,3.06,5.39a1.67,1.67,0,0,0-2.38-.88c-.06,0,0,.12,0,.12a1.86,1.86,0,0,1,1.9,1,8.89,8.89,0,0,1,.68,1.8c.07.2.41.16.38-.06v0C169.6,97,168.21,93,165.45,92.19Z" style="fill: rgb(38, 50, 56); transform-origin: 167.322px 96.0099px;" id="elu46kb944sx" class="animable"></path></g><defs>     <filter id="active" height="200%">         <feMorphology in="SourceAlpha" result="DILATED" operator="dilate" radius="2"></feMorphology>                <feFlood flood-color="#32DFEC" flood-opacity="1" result="PINK"></feFlood>        <feComposite in="PINK" in2="DILATED" operator="in" result="OUTLINE"></feComposite>        <feMerge>            <feMergeNode in="OUTLINE"></feMergeNode>            <feMergeNode in="SourceGraphic"></feMergeNode>        </feMerge>    </filter>    <filter id="hover" height="200%">        <feMorphology in="SourceAlpha" result="DILATED" operator="dilate" radius="2"></feMorphology>                <feFlood flood-color="#ff0000" flood-opacity="0.5" result="PINK"></feFlood>        <feComposite in="PINK" in2="DILATED" operator="in" result="OUTLINE"></feComposite>        <feMerge>            <feMergeNode in="OUTLINE"></feMergeNode>            <feMergeNode in="SourceGraphic"></feMergeNode>        </feMerge>            <feColorMatrix type="matrix" values="0   0   0   0   0                0   1   0   0   0                0   0   0   0   0                0   0   0   1   0 "></feColorMatrix>    </filter></defs></svg>